<?xml version="1.0" encoding="utf-8"?>
<!-- Generator: Adobe Illustrator 19.0.1, SVG Export Plug-In . SVG Version: 6.00 Build 0)  -->
<svg version="1.1" id="Layer_1" xmlns="http://www.w3.org/2000/svg" xmlns:xlink="http://www.w3.org/1999/xlink" x="0px" y="0px"
	 viewBox="0 0 1600 73" style="enable-background:new 0 0 1600 73;" xml:space="preserve" preserveAspectRatio="none">
<style type="text/css">
	.st0{clip-path:url(#SVGID_2_);}
	.st1{fill:#FFFFFF;}
</style>
<g>
	<g>
		<defs>
			<rect id="SVGID_1_" width="1600" height="73"/>
		</defs>
		<clipPath id="SVGID_2_">
			<use xlink:href="#SVGID_1_"  style="overflow:visible;"/>
		</clipPath>
		<g class="st0">
			<path class="st1" d="M716.2,48.1c0,0-0.3,1.1-0.2,1.4c0,0.2,0.6,1.3,0.6,1.5s0.2,0.6,0.5,0.7c0.3,0.1,0.6,0.1,1.1,0.2
				c0.6,0.1,1-0.1,1.4,0.1c0.4,0.1,0.9,0.5,1,0.8c0.1,0.2,0.6,1,0.9,1.3c0.2,0.2,0.6,1.5,0.8,1.7s0.7,0.5,1,0.7
				c0.2,0.2,1.5,1.1,1.7,1.1c0.2,0.1,0.4,0,0.9-0.1s0.8-0.1,1.1-0.2c0.4-0.1,1-0.1,1.3-0.3c0.3-0.1,0.5-0.4,0.5-0.4s0.4-1.2,0.4-1.4
				s0.1-1.1,0-1.5s-0.1-1.9-0.2-2.1c0-0.2-0.3-1.1-0.4-1.7c0-0.2-0.1-0.4-0.2-0.5c-0.1-0.1-0.2-0.2-0.2-0.3c0-1.1,0.2-2.9,0.3-3.2
				c0.1-0.5,0.6-2.5,0.7-2.6c0.1-0.1-0.2-0.8-0.2-1s0.1-0.6,0.2-0.8c0.1-0.2-0.1-0.7-0.2-1c-0.1-0.2,0.1-0.7,0.1-0.9s0-0.7-0.1-0.8
				s-1.7,0-2.2-0.3s-1.4-1.1-1.4-1.1l-6.3,0.3c0,0,0,0.4,0,0.5s0.1,1,0,1.3c0,0.2-0.2,1.5-0.2,1.6s-0.3,1-0.4,1.1
				c-0.1,0.2-0.6,0.8-0.7,1c-0.1,0.2,0,0.5,0,0.5s-0.1,0.7-0.2,0.9c-0.1,0.2-0.4,0.5-0.6,0.8c-0.2,0.2-0.7,0.8-0.7,0.8
				s0.1,0.6-0.1,0.8C716.1,47.2,716.3,48,716.2,48.1C716.4,48.1,716.2,48.1,716.2,48.1z"/>
			<path class="st1" d="M647.1,57.5c-0.3,0-0.5,0-0.6,0.1c-0.7,0.1-1.6,0.4-1.6,0.4s-2.6,0.4-3.2,0.5c-0.6,0.1-2.4,1.6-2.8,1.7
				c-0.4,0.1-5.5,0.8-5.5,1.1c0,0.2,3.2,0.8,5.9,1.4c0.1,0,0.2,0,0.2,0c0.2,0,0.6-0.2,0.7-0.3h0.1h0.1l0.9-0.6c0,0,0-0.2,0.2-0.2
				l0,0c0.1,0,0.2,0,0.2,0l0,0l4.8-2.5c0,0-0.4-0.6-0.2-0.9C646.6,58.1,646.9,57.7,647.1,57.5z"/>
			<path class="st1" d="M875.1,42.7c0.2-0.3,0.1-0.7,0.2-0.7c0.1,0,0.3,0.3,0.3,0.3s0.4-0.2,0.6-0.2c0.2,0,0.3-0.4,0.3-0.4
				s0.4-1.1,0.5-1.6v-0.5c0,0-1.5-0.1-2.3,0.1c-1.3,0.5-3.3,2.6-1.9,4.8c1.4,2.3,4.2,1.2,4.5,1c0.4-0.2,0.8-0.7,0.8-0.7
				s-0.4-0.5-0.6-0.7c-0.1-0.1-0.5-0.4-0.7-0.3c-0.2,0.1-0.3,0.1-0.4,0.4c-0.1,0.3,0.1,0.6,0,0.7c-0.2,0.1-0.4,0.2-0.5,0.1
				c-0.1-0.1-0.3-0.3,0-0.5c0.2-0.1,0-0.4,0-0.4s-0.2,0.4-0.4,0.3c-0.1-0.1-0.2-0.5-0.1-0.5c0.1,0,0.2-0.3,0.2-0.3s-0.2-0.1-0.4-0.3
				c-0.2-0.1-0.3-0.1-0.2-0.4C875,42.9,874.9,43,875.1,42.7z"/>
			<polygon class="st1" points="787.4,31.3 787.6,30.5 788.1,30.3 788.4,30.1 786.7,30 787.1,30.5 787.2,31 			"/>
			<path class="st1" d="M889.4,47c-0.2-0.2-0.1-0.4-0.3-0.4c-0.1-0.1-0.3-0.2-0.3-0.4s-0.1-3.1-0.1-3.1s-3.3,1.2-2.7,4
				s2.6,3.1,3.9,3.1c1.4,0,3.2-1.2,3.5-3c0.2-1.7-0.7-3.1-1.4-3.6c-0.7-0.4-2-0.7-2-0.7s0,0.3-0.1,0.4c-0.2,0.1-0.4,0.1-0.4,0.1v2.1
				c0,0,0.4,0.2,0.4,0.4s0.1,0.3,0.1,0.3s0.4,0.2,0.3,0.3s-0.3,0.2-0.4,0.3C889.8,47,889.5,47.2,889.4,47z"/>
			<path class="st1" d="M730.2,49.2c0,0.2,0,0.2,0,0.2c0,0.2,0.4,1.1,0.4,1.3s0,1.1,0,1.4c0,0.2-0.2,1.9-0.1,2.2
				c0.1,0.2,0.4,1.3,0.4,1.3l0.9-0.5c0,0,0.5-1.3,0.5-1.8s-0.6-2.2-0.7-2.5c-0.2-0.4-0.4-0.7-0.5-1.5c-0.2-0.8-0.5-1.4-0.6-1.6
				c0,0,0.1,0.8,0.1,1.3L730.2,49.2z"/>
			<path class="st1" d="M729.1,37.2l0.1-0.4l-2.3,0.1c0,0,0.4,0.2,0.5,0.2C727.9,37.4,729,37.3,729.1,37.2z"/>
			<path class="st1" d="M880,44.2c0,0,0.5-0.6,0.7-0.7c0.2,0,0.4-0.4,0.4-0.5v-0.4c0,0-0.2-0.3-0.1-0.4c0.1-0.1,0.2-0.1,0.2-0.1
				v-0.5c0,0-1.1,0.5-1.1,0.6c0,0,0.2,0.5,0.1,1.1C880,43.9,880,44.2,880,44.2z"/>
			<path class="st1" d="M880.1,45.2c0-0.2-0.7-0.2-0.7-0.2s-0.4,0.6-1,1.1c-0.5,0.5-1.5,0.8-1.5,0.8s1.4,0.4,1.9,0.4
				c0.5,0.1,1.3,0.3,1.6,0.5c0.4,0.2,2.7,2.2,3.1,2.4c0.4,0.1,3.4,0.1,3.4,0.1s-2.5-1.7-1.9-4.5s3.5-3.7,3.5-3.7l-0.1-1.2l-4.9,2.7
				c0,0,0.5,0.4,0.8,0.4c0.3,0.1,0.5,0.1,0.4,0.4c-0.1,0.2-0.2,0.4-0.5,0.5s-0.2,0.2-0.5,0.3c-0.2,0.1-0.3,0.1-0.4,0.1
				c-0.2,0-0.1-0.1-0.3-0.2c-0.2-0.1-1,0.1-1,0.1s0,1-1.2,0.9C880.1,46.1,880.1,45.4,880.1,45.2z"/>
			<path class="st1" d="M879.1,43.1c0.1-0.3,0-0.6,0-0.6l-1.1,0.4l0.8,0.9C878.9,43.7,879,43.4,879.1,43.1z"/>
			<path class="st1" d="M880.1,37c0,0-0.1,0.4-0.2,0.5c-0.1,0.1-0.3,0.5-0.5,0.8s-0.8,1.2-0.8,1.2s0.2,0.3,0.5,0.6s0.5,0.7,0.5,0.7
				s0.4,0,0.5,0c0.1,0.1,0.1,0.5,0.1,0.5L881,41v-0.6c0-0.3,0.1-1.2,0.1-1.5c0.1-0.3,0-0.8-0.1-1C880.9,37.8,880.1,37,880.1,37z"/>
			<path class="st1" d="M714.9,38.8c0,0,0.2-0.1,0.4-0.2c0.1-0.1,0.7-0.8,0.7-0.8l-1.5,0.1c0,0,0.1,0.2,0.1,0.4
				C714.5,38.5,714.9,38.8,714.9,38.8z"/>
			<path class="st1" d="M882.7,41.8c-0.3,0.3-0.1,0.7,0.1,1c0.1,0.3,0.4,0.2,0.4,0.2l5.2-2.9l-0.1-0.2l-4.5,1
				C883.7,41,883,41.6,882.7,41.8z"/>
			<path class="st1" d="M889.9,38.5c0.1,0.1,0.1-0.3,0-0.4c-0.1-0.1-0.4-0.7-0.5-0.9c-0.2-0.2-0.3-0.7-0.6-1
				c-0.2-0.2-0.7-0.7-0.8-0.8c0.1,0.2,0.6,1.1,0.9,1.4c0.3,0.3,0.5,0.8,0.6,1C889.5,38,889.8,38.4,889.9,38.5z"/>
			<path class="st1" d="M886.4,34.9c0,0-1.1-0.2-1.9-0.2c-0.8,0-2-0.2-2.4-0.2s-0.7,0-0.7,0s0.1,0.3,0.2,0.5c0.2,0.2,1,0.3,1.2,0.5
				c0.1,0.2,0,0.5-0.1,0.5h-0.6c0,0,1,1.5,1,2.1s-0.2,1.6-0.2,1.6l0.6,0.5l0.5,0.2l4.3-0.8l0.1-0.9c0,0-0.9-1-1.1-1.6
				S886.4,34.9,886.4,34.9z"/>
			<polygon class="st1" points="451,15.4 451.1,16.1 451.6,16.9 451.7,17.1 452.4,16.5 			"/>
			<polygon class="st1" points="449.9,11.5 452.5,7.8 451.6,6.5 			"/>
			<polygon class="st1" points="456,12.7 452.9,8.3 449.7,12.7 			"/>
			<path class="st1" d="M703.6,47.1c-0.1,0.4-0.5,1.1-0.7,1.5s-0.5,1.3-0.3,1.4c0.1,0.1,0.1,0.1,0.3,0.3c0.3,0.2,0.9,0.4,1.2,0.9
				c0.2,0.2,0.6,1.8,1.1,2.2c0.5,0.3,0.9,0.3,0.8,0.5c-0.1,0.2-0.5,0.7-0.5,0.7s0.4-0.1,0.5-0.1s1.8-0.6,2.2-0.7
				c0.4-0.1,1.2-0.2,1.5-0.2s1.2-0.2,1.2-0.2s1.2-0.9,1.5-1s2.6-0.6,2.6-0.6s0-0.3,0-0.5s-0.5-1.4-0.5-1.6c0-0.3-0.1-1.2-0.1-1.2
				s-0.6-0.6-0.6-0.8s0.3-0.7,0.2-0.9c0-0.3-0.2-0.4-0.4-0.4c-0.1,0-0.1-0.2-0.1-0.4s0.5-0.4,0.3-0.4c-0.1,0-0.9,0.3-1.3,0.4
				c-0.1,0-0.2-0.3-0.3-0.3c-0.2,0.1-0.1,0.5-0.1,0.9s-0.2,1.1-0.4,1.7c-0.2,0.6-0.4,1.5-0.6,1.9c-0.2,0.3-0.2,1.5-0.3,1.7
				s-0.4,0.1-0.7,0c-0.2-0.1-0.3-0.1-0.6-0.1c-0.3-0.1-1.2-0.4-1.5-0.6c-0.2-0.2-0.4-0.4,0-0.5s0.5,0,0.7,0s0.5-0.3,0.8-0.4
				c0.3-0.1,0.7-0.6,0.8-0.8s0.3-2.1,0.3-2.6s-0.1-1.6,0.1-1.9c0.3-0.2,1.2-0.9,1.2-0.9s0.1-0.2,0.3-0.3c0.1,0,1.7-0.6,1.7-0.6
				l0.3-0.1c0,0,0.1-0.2,0.1-0.4s0.2-0.6,0.3-0.9c0.1-0.3,0.2-1.3,0.2-1.3s-0.3,0.2-0.4,0.2c-0.1,0-0.2-0.1-0.4-0.7
				c-0.2-0.7-0.5-1.7-0.5-1.7l-8.7,0.5c0,0,0.1,0.4,0.1,0.5c0.1,0.1,0,0.5,0,0.8s-0.1,0.5-0.3,0.8s-0.5,0.9-0.5,1.2
				s-0.1,1.1-0.2,1.9c-0.1,0.8,0.4,1.6,0.2,2C704,45.9,703.8,46.7,703.6,47.1z"/>
			<path class="st1" d="M455.9,13.6h-5.4c0.2,0.3,0.5,0.9,0.5,0.9l0,0l1.9,1.6L455.9,13.6z"/>
			<polygon class="st1" points="452.9,7.3 453.8,5.9 451.9,5.9 			"/>
			<polygon class="st1" points="455.9,11.5 454.1,6.5 453.2,7.8 			"/>
			<path class="st1" d="M878.1,40.6c0,0,0,0.1-0.1,0.3c-0.1,0.1-0.2,0.7-0.2,0.7l0.1,0.1l0.8-0.2c0,0,0-0.2-0.1-0.4
				C878.5,40.8,878.1,40.6,878.1,40.6z"/>
			<path class="st1" d="M589.1,55.7l-11-12.2l2.6,11.6c0,0,3.2,0.5,6.2,0.6C587.7,55.7,588.4,55.7,589.1,55.7z"/>
			<path class="st1" d="M450.1,13.8c0-0.1,0-0.1,0-0.2h-0.2L450.1,13.8z"/>
			<path class="st1" d="M650,57.3c-0.3,0-0.7,0-1,0.1c-0.2,0.2-0.4,0.5-0.4,0.5l0.5,0.1l0.8-0.4C650.1,57.5,650.1,57.4,650,57.3z"/>
			<path class="st1" d="M645.9,60.9c-0.1-0.4-0.1-0.6-0.1-0.6l-3.7,1.9c0,0,0,0.2,0,0.3H642c-0.1,0-0.3-0.1-0.3-0.1l-1,0.6l0,0
				c1.1,0.3,2,0.6,2.2,0.8c0.8,0.8,5.2,2.3,7.9,2.8c2.7,0.4,7.8,2,11.4,2.2c3.6,0.2,9.6-0.8,10.2-0.4c0.6,0.4,8,0,12.5,0.4
				c4.4,0.4,18.7,3.1,23.3,3.1c4.6-0.1,17.5-1.7,25-1.3c7.5,0.4,15.5,0.4,15.5,0.4s-19.3-5.5-21.7-5.8c-2.4-0.2-12.2-0.5-15.1-0.6
				c-2.8-0.1-12.6,0.4-16.1-0.4c-3.5-0.7-7.1-0.1-9-0.4c-2-0.2-6.6-2.6-14.2-3.7c-7.6-1.1-13-3.1-15-3.1c-0.4,0-1,0-1.8,0v0.2
				l0.1,0.5l0.3,0.3l0.1,0.4c0,0,1.3,0.3,1.5,0.4c0.2,0.1,0.3,0.1,0.3,0.1s0.4-0.1,0.7-0.1l0,0c0.2,0,0.4,0.2,0.4,0.2s1,0.1,1.2,0.2
				c0.2,0.1,0.3,0.3,0.2,0.4c-0.1,0.1-0.3,0.1-0.3,0.1v0.1c0,0,0.5,0.2,1,0.3c0.4,0.1,2.1,0.7,2.4,0.8c0.3,0.1,0.9,0.3,1.1,0.5
				c0.2,0.2,0.3,0.7,0.3,1.9s-0.4,2.1-0.5,2.3s-0.6,0.7-1,0.8c-0.1,0-0.5,0.1-0.7,0c-1-0.1-6.9-1.3-8.1-1.4c-0.2,0-3.3-0.6-4.6-0.9
				c-1.3-0.3-2.7-1-3.1-1.3C646.1,62.3,645.9,61.3,645.9,60.9z"/>
			<path class="st1" d="M452.5,18.6l1,0.3v0.6l-0.1,0.9l-0.1,0.8l0.7-0.1l0.5,0.1l0.4-0.3v-0.4h0.3V20v-0.2c0,0-0.2-0.3,0.2-0.2
				c0.4,0.1,0.8,0.4,0.8,0.4v0.2l0.1,0.2l0.4,0.2l0.4-0.2l-4.6-3.5l-0.8,0.6l0.4,0.2L452.5,18.6z"/>
			<polygon class="st1" points="458.2,18.4 456.6,13.8 453.3,16.5 458.1,20.2 458.3,20.1 458.3,19.6 458,19.3 458.1,18.7 			"/>
			<path class="st1" d="M447,20L447,20l0.4,0.4l0.1,0.1l0.8-0.7l0.1-0.1c0,0-0.1-0.7,0.1-0.7c0.2-0.1,0.5,0.2,0.5,0.2l0.1-1.3l0.3-1
				l0.4-1.4V15l0.2-0.5l-0.8-0.6L447,20z"/>
			<path class="st1" d="M841.9,23.5c0,0-0.2-0.8-0.1-1.1c0-0.3,0-0.8,0-0.8l-0.2,0.1c0,0,0.1,0.5-0.1,0.5c-0.2,0-0.8,0-0.8,0
				s0.6,0.5,0.8,0.7C841.5,23.1,841.9,23.5,841.9,23.5z"/>
			<path class="st1" d="M580.7,19.6c0,0.1,0,0.3-0.1,0.4h0.7h0.5c0,0,0-0.1,0.1-0.1c0.1-0.1,0-0.2-0.1-0.3h-0.5H580.7z"/>
			<path class="st1" d="M842.3,25c-0.1,0.1,0.2,0.3,0.2,0.4c0.1,0.1,0.2,0.1,0.2,0.1l-0.1-0.7C842.7,24.9,842.4,24.9,842.3,25z"/>
			<path class="st1" d="M843.9,24.4c-0.1,0.2,0.1,0.9,0.2,1.1c0.1,0.2,0.6,0.1,0.6,0.1l1.5-2C846.2,23.5,844,24.2,843.9,24.4z"/>
			<path class="st1" d="M845.3,26l0.6,0.3c0,0,0.5-0.8,0.6-1s1-1.2,1-1.2l-0.3-0.4L845.3,26z"/>
			<polygon class="st1" points="850.7,28.9 850.9,28.9 850.7,28.4 849.5,26.3 849.2,26.4 850.3,28.1 			"/>
			<path class="st1" d="M847.9,29.6c0.6,2.6,2.8,3.4,4.7,3.1s3-2.8,1.5-5c-1.5-2.1-4.1-1.8-4.1-1.8l1.2,2.4c0,0,0.3,0.1,0.6,0.3
				c0.3,0.3,0.5,0.8,0.1,1.1c-0.4,0.3-0.3-0.1-0.5,0s-0.3,0.1-0.5,0s-0.3-0.1-0.5,0s-0.4-0.2-0.5-0.3c-0.1-0.2,0-0.6,0-0.6l-1.3-2.3
				C848.7,26.6,847.5,27.8,847.9,29.6z"/>
			<path class="st1" d="M841.3,26.6l-0.4,0.9c0,0,0.2,0.3,0.2,0.5s0,0.6,0,0.6s0.4,0.2,0.5,0.1s0.1-0.5,0.2-0.8
				c0.1-0.3,0-0.4-0.1-0.8C841.5,26.6,841.3,26.6,841.3,26.6z"/>
			<polygon class="st1" points="843.7,22.1 843.8,23.7 845.6,22.9 			"/>
			<path class="st1" d="M2.6,15.9l0.5-0.6l0.2-0.8c0,0,0.1-0.4,0.2-0.2c0.1,0.2,0.4,0.8,0.4,0.8v0.5L4.4,16h0.1l0.9-1.1l0.3-1
				l0.4-0.5l0.2-0.7L6.2,12l0.3-1l0.3-1L7,8.9V8.3c0,0-0.2-0.3,0.2-0.2c0.4,0.1,0.3,1,0.3,1l0.3,0.7l0.1,1L8,11.6l0.6,1.1v1.2
				l0.2,0.5l0.1,1.1L9,15.7l0.8-0.5c0,0,0-0.5,0.4-0.2c0.4,0.2,0.2,0.8,0.3,1c0,0.1,0.1,0.3,0.1,0.4l2.8,0.1l0.1-0.1l0.3-1.1
				l0.3-0.7l0.4-0.1l0.1-0.7l0.1-1.1l0.1-0.1c0.1,0.8,0.2,1.7,0.3,2.5l0.3-0.4l0.3-0.4l0.2-0.7L16,13l0.1-1l0.1-0.6
				c0,0-0.2-0.4,0.2-0.5c0.4-0.1,0.4,0.4,0.4,0.4l0.4,1l0.4,0.6l0.1,0.7l0.1,1l0.2,0.7l0.2,0.3l0.6,0.7l0.1,0.7l0.4,0.3l0.6-0.5
				l0.4-0.5l0.4-0.2l0.2,0.2l0.1-1l0.3-0.2l0.1-0.8l0.4-0.7c0,0,0-0.5,0.1-0.5c0.1-0.1,0.2,0.1,0.2,0.1l0.6-1.2c0,0-0.4-0.6,0.2-0.4
				c0.6,0.2,0.3,0.8,0.3,0.8l0.5,1.2v0.6l0.2,0.7l0.3,0.2l-0.4,0.4L24,16l0.5-0.2l0.1-0.8v-0.3l0.6-0.3L25,13.7l0.1-0.5l0.1-0.6
				l0.1-0.6c0,0,0-0.4,0.3-0.3c0.2,0.1,0.5,1.5,0.5,1.5l0.2,0.9v0.5h0.5l0.3,0.7V16l0.1,0.5l0.1,0.5l0.1,0.7l0.1,0.5l0.5,0.2
				l0.3-0.5l0.2-1.2v-0.6c0,0,0-0.3,0.3-0.3c0.2,0,0.4,1.2,0.4,1.2l0.1,0.7l0.1,0.5l0.3,0.2L30,19v0.8l0.3,0.5l0.4-0.3l0.3,0.6v1
				l0.3,0.8l0.2,0.2l0.6,0.3l0.6,0.4l0.2,0.2l0.5-1l0.4-0.1l0.2-0.7V21l0.6-0.4l0.6,0.3l0.3,0.1v-1l0.1-0.6v-1l0.4-0.6l0.2-0.7
				l0.1-1.4l0.2-0.6l0.4-1c0,0-0.1-0.4,0.1-0.4c0.2,0,0.3,0.6,0.3,0.6l-0.1,1.3l0.3,0.7l0.1,1.1l-0.1,1l0.5,0.8l0.3,0.8l0.6,1
				l0.2,0.4l0.7,0.1c0,0-0.1-1.4,0.2-1.3s0.4,0.2,0.4,0.2l0.5,0.8l0.5,1.3l-0.1,0.6v1.1l0.7,0.4l0.1,1.7l0.5,0.8l0.9,0.2l0.3,0.9
				l0.1,0.6l0.2,0.6l0.1,1l0.9,0.7l0.7,0.2l0.3,0.5h0.7L46.6,31v-1.2l0.2-0.7l0.3-0.9l0.1-1.4l0.1-0.5c0,0,0.2-1,0.5-1
				s0.7,0.8,0.7,0.8l0.4,1v1.2l0.3,0.9l0.2,1.1L50,31l0.1,0.9v1.5l1.1,0.5l0.3,0.5l0.7-1l0.5-0.5l0.5,0.6l0.4,0.2v-1.1l0.7-0.6v-0.8
				l0.2-1.1c0,0-0.2-0.5,0.1-0.4s0.9,1.3,0.9,1.3l-0.1,1.2L56,33l0.2,0.8l0.1,0.7l0.2,0.2l0,0l0.4-0.4l0.4-1.1v-0.7
				c0,0-0.1-0.6,0.2-0.5c0.3,0.1,0.3,0.6,0.3,0.6l0.2,0.5l0.3,0.7l0.6-0.3l0.4-0.6l0.2-0.6l-0.3-0.5l-0.1-1.2l0.5-1
				c0,0,0-0.8,0.2-0.8s0.4,1,0.4,1.1v-0.2l0.3-1c0,0-0.4-0.7,0.2-0.6c0.6,0.1,0.5,0.5,0.5,0.5l0.2,0.7l0.2,0.7v0.3l0.2-0.3l0.4-0.3
				l0.2,0.6c0,0,0.1,0.2,0.1,0.3c0-0.4,0.2-1,0.2-1l0.4-0.8c0,0-0.1-0.4,0-0.4s0.3,0.5,0.4,0.9c0.1-0.1,0.3-0.3,0.5-0.2
				c0.3,0.1,0.7,0.7,0.7,0.7s0.2-0.6,0.3-0.5c0.2,0.2,0.3,0.6,0.3,0.6l0.2,0.7l0.2,0.7v0.2v0.1l0.2,0.4v0.2c0.1-0.1,0.2-0.2,0.3-0.1
				c0.2,0.2,0.1,0.6,0.1,0.6L67,33l0.3,0.4l0.5,0.5l0.5-1.2c0,0-0.1-0.7,0.1-0.7c0.2-0.3,0.6,0,0.6,0l0.1-1.3l0.3-1l0.4-1.4v-0.5
				l0.4-1.1c0,0-0.1-0.5,0.2-0.5c0.3,0,0.7,1.1,0.7,1.1l0.1,1.6l0.6,0.8l0.2,0.5l0.6,0.4l0.1,0.8l1,0.3v0.6l-0.1,0.9L73.5,34
				l0.7-0.1h0.3v-0.3c0,0,0.1-0.8,0.3-0.7c0.2,0,0.5,0.4,0.5,0.4l0.1,0.3l0,0c0,0,0.5-0.6,0.8-0.5c0.3,0.2,0.5,1,0.5,1l0.1,0.4v0.3
				l0.1,0.4h0.6l0.1,0.3H78l0.6,0.3l0,0l0.4-0.4l0,0l0.1-0.9v-0.7c0,0,0-1.1,0.3-1.1c0.4,0,0.7,2,0.7,2l0.6,1.4l0.5,0.8l0.1,1.2v0.1
				c0.6,0.1,1.3,0.2,1.5,0.2c0.5,0.1,1.6,0.3,2.2,0.6s2.2,0.6,3.6,0.5c1.5-0.1,2.7,0.1,3.8,0.4c1.1,0.3,6.4,2.4,7.1,2.9
				s1.8,1.7,2.2,2.1c0.4,0.4,1.1,1.1,1.8,1.3c0.7,0.2,1.5,0,2.7,1.6s3.6,3.6,4.3,4.1c0.7,0.5,1.6,1.1,2,1.3s1.8,0.1,2,0.2
				c0.2,0.2,1.6,0.9,1.8,1c0.1,0,0.9-0.2,1.8-0.4c0.3-0.6,0.5-1.1,0.5-1.2c0.1-0.3,0-0.4,0.2-0.2s0.5,0,0.7-0.3s0.7-1.1,0.9-1.4
				c0.2-0.3,0.8-0.5,0.9-0.7s0.5-0.7,0.5-0.9s0.3-1.4,0.3-1.4s0.2,0,0.5,0c0.2-0.1,0.1-0.7,0.1-0.7l0.1-1.1l0.3-0.2l0.2-0.8l0.2-0.8
				c0,0,0.1-0.4,0.4-0.2s0.1,1,0.1,1l0.3,0.9l0.2,0.4l0.4-0.8l0.2-0.9l0.1-0.6l0.4-1.3l0.5-0.1l0.1-1.1l0.2-1l0.3-0.1l0.2,0.2
				l0.3,0.1l0.7-0.1l-0.3-0.7l-0.3-0.6l0.1-0.4h-0.5c0.1-0.1,0.1-0.3,0.2-0.4h0.5l0.5-0.6l0.2-0.8c0,0,0.1-0.4,0.2-0.2
				c0.1,0.2,0.4,0.8,0.4,0.8v0.5l0.4,0.4h0.1l0.8-1l0.2-0.9l0.3-0.4l0.2-0.7l0.1-0.6l0.2-1l0.2-0.9l0.2-1v-0.5c0,0-0.2-0.3,0.2-0.2
				c0.4,0.1,0.2,0.9,0.2,0.9l0.2,0.6v0.9l0.1,0.8l0.5,1v1.1l0.1,0.4l0.1,1l0.3,0.2l0.7-0.5c0,0,0-0.4,0.4-0.2s0.2,0.7,0.2,0.9
				c0,0.1,0.1,0.3,0.1,0.4l2.6,0.1l0.1-0.1l0.3-1l0.2-0.7l0.4-0.1l0.1-0.6l0.1-1l0.4-0.3l0.3-1v-0.7c0,0-0.1-0.6,0.2-0.5
				s0.3,0.5,0.3,0.5l0.2,0.4l0.2,0.7l0.1,0.7l0.3,0.8l0.2-0.7l0.1-1.3l0.5-1.2l0.1-0.7l0.2-0.2l0.2-0.5l0.1-0.7l0.2-0.9
				c0,0-0.3-0.6,0.2-0.5s0.4,0.4,0.4,0.4l0.2,0.7l0.1,0.7V32l0.3,0.4l0.2,0.8l0.5,0.3l-0.2-0.8l0.1-0.6l0.3-0.7l0.4-0.8
				c0,0,0.2-0.4,0.5-0.2c0.3,0.1,0.6,0.7,0.6,0.7s0.1-0.6,0.3-0.4c0.2,0.1,0.3,0.6,0.3,0.6l0.1,0.6l0.1,0.6v0.3v0.8
				c0,0,0.3-0.6,0.4-0.4c0.2,0.2,0.1,0.5,0.1,0.5l0.7,0.3l0.2,0.3l0.4,0.4l0.4-1.1c0,0-0.1-0.6,0-0.7c0.1-0.1,0.5,0.2,0.5,0.2v-1.2
				l0.3-0.9l0.4-1.3V29l0.3-1c0,0-0.1-0.5,0.2-0.4c0.3,0,0.6,1,0.6,1l0.1,1.5l0.5,0.7l0.2,0.5l0.6,0.3l0.1,0.7l0.9,0.2v0.6l-0.1,0.8
				v0.8l0.7-0.1h0.5l0.6-0.4c0,0,0.5-0.6,0.8-0.4c0.3,0.1,0.5,0.9,0.5,0.9l0.1,0.3v0.2l0.1,0.4h0.6l0.1,0.3h0.4l0.7,0.3l0.4-0.8
				c0,0,0.1-0.6,0.3-0.4c0.2,0.1,0.3,0.3,0.3,0.3V36l0.1,0.6v0.6l0.3,0.9c0,0,1.4,0.2,2.2,0.3c0,0.1,0,0.3,0.1,0.4
				c1.2,1.5,2.6,2.5,4.2,3.5c2.2,1.3,3.7,3.3,5.6,5c0.2,0.2,0.4,0.3,0.6,0.5c0.4-0.1,0.9-0.2,1.1-0.4c0.3-0.2,1.1-1.5,1.6-2
				c0.5-0.4,1.2-0.7,1.6-0.6c0.4,0,2-0.6,2.6-1.2c0.6-0.5,2-1.5,2.3-1.5c0.4-0.1,1,0,1.5,0.2s2,1,2.3,1.4s1.8,0.5,2,0.5
				s1.8,0.2,2.3,0.5c0.4,0.3,1.4,0.9,2.1,0.8c0.7-0.1,1.9-1,2.4-0.8s2-0.1,2.4-0.2c0.4-0.1,2.4-0.2,2.8-0.3c0.4-0.1,3-3.3,3.7-3.3
				s4.2-3.7,4.4-4s2.3-1.8,3.2-1.9c0.1,0,0.2,0,0.2,0c0.2,0.4,0.7,0.3,0.9,0c1.2,0,2.8-0.1,3.2-0.1c0.5,0,1.3,0.3,1.8,0.6
				s2-0.2,3.4,2.2c1.4,2.3,2.3,2.8,2.6,3c0.4,0.2,6.1,2.6,7.1,2.9c1,0.3,1.9,0.7,2.7,1.6c0.8,0.8,1.7,1.1,2.3,1.3
				c0.7,0.2,2.8,0.9,3.4,1.4c0.6,0.5,2.5,1.3,3.2,1.5s5.6,0.6,7,0.9c1.4,0.3,3.6,1,4.1,1.3s1.9,0.8,2.2,1.3s2.3,1.3,3,1.5
				s2.3,0.9,2.5,1s1,0.3,1.8,0.4s2.5,0.2,3.7,0.1c1.3-0.1,2.3-0.2,3.1-0.2c0.8,0,3.4-0.7,4.1-0.8c0.8-0.1,1.3,0,2.2,0.2
				c0.8,0.2,2.8,0.6,3.1,0.6c0.3,0,4.6-0.5,5.4-0.6s4.4,0.1,4.6,0.1l0,0c0.6,0,1.3,0,1.9-0.1c0.1,0,0.3,0,0.4-0.1c0.3,0,0.7,0,1-0.1
				c0.3,0,0.6-0.1,0.8-0.3c1-0.2,2.2-0.4,2.6-0.4c0.2,0,0.6-0.1,1-0.1l0,0c0.1,0,0.3,0,0.4,0s0.3,0,0.4,0c0.4-0.1,0.7-0.2,1.1-0.2
				c0.8-0.2,1.6-0.4,2.3-0.6c0.3-0.1,0.5-0.2,0.8-0.3c0.2,0,0.3,0,0.4,0c0.4,0.1,0.8,0.3,1.3,0.4c0.5,0.1,2,0,2,0l0.2-0.2
				c0,0,0.1-0.3,0.2-0.7c0.8,0.1,1.6,0.1,2.5,0c0,0.2,0,0.3,0,0.4h1.5c0,0,0.1-0.2,0.1-0.5c1.2-0.2,2.4-0.4,3.6-0.7l0,0
				c-0.2,0.3-0.5,0.4-0.2,0.5s1,0,1.2,0s1.2-0.3,1.4-0.3c0.1,0,0.2-0.1,0.2-0.1c0.7-0.1,1.4-0.2,2.1-0.3c0.2,0,0.4-0.1,0.6-0.2
				c0.6-0.1,1.8-0.4,2.8-0.6h0.1c0.7-0.2,1.4-0.3,1.7-0.4c0.2,0,0.5-0.1,0.8-0.2c0.5-0.3,0.5-0.2,0.7-0.3s0.3-0.1,0.4,0
				c0.1,0,0.2-0.1,0.3-0.1c0.1,0,0.3-0.1,0.4-0.1c0,0,0,0,0.1,0h0.1c0,0,0,0,0-0.1c0.1-0.1,0.2-0.2,0.3-0.3c0.2-0.3,0.8-0.3,1.1-0.4
				c0.5-0.1,0.9-0.3,1.3-0.4c0,0,0.1,0,0.1-0.1l0,0c0.2-0.1,0.3-0.3,0.5-0.4c1.9-0.7,3.7-1.5,5.4-2.5c1-0.1,2,0.2,2.5,0
				s1-1.1,1.9-1.2c0.9-0.1,2.8-0.2,3.3-0.1c0.5,0.1,0.8-0.5,0.8-0.5h0.5l0.4-1.1l0.4-0.8l0.4-0.8l0.9-1.1l0.2,0.8l-0.1,0.7v1
				l0.2,0.5l0.5-0.9l0.7-0.7l0.3-1.3l0.6-1l0.5-0.1l0.4-1l0.3-1.1l0.4,0.9l0.5-0.5l0.7,0.1l0.2-1.2l0.4-1.2l0.6-1l0.2,0.6l0.3,0.4
				l0.5,0.4l0.1,0.5l0.5-0.8l0.1-0.1c0.2-0.9,0.4-1.9,0.6-2.8h0.5l0.2,0.8l-0.3,0.4v0.3l0.1-0.2l0.4-1l0.4-1.5l0.6-1l0.4-1.3
				l0.3-0.6l0.2,1.9V31l0.1,0.8l0.4,1.3l-0.4,1.4l0.3,1.6l0.8-0.4l0.4,0.8v0.7l0.6-0.7l0.7-1.3c0,0,0.6-1.9,0.9-1.9
				c0.4,0,0.2,1.1,0.2,1.1v0.7v1l0.4,0.5l0.3,0.8l0.4-0.7l0.3-0.8l0.8-0.2l0.1-0.8l0.4-1.1l0.6-0.3l0.4-0.9l0.3-0.7v1.2l0.3,0.9v0.3
				l0.1,0.1c0.1,0,0.1,0,0.1,0c0.1,0,0.1,0.1,0.1,0.2h0.1l0.6-1l0.3-0.9l0.3-0.6l0.7-0.9l0.5-0.9l0.5-1.4l0.3-0.3l-0.1,1.8l0.3,1.2
				l0.3,1.2l0.2,0.8l0.6-1.4l0.8-1.3l0.3-0.4l0.5-0.3l0.2,1.3l0.6-0.6l0.5-0.1v1.1V33v0.7l0.2,0.7l0.9,0.6l-0.2,0.8l0.2-0.3l0.1-1.1
				l0.3-0.4c0,0,0.5-1.1,0.7-1c0.2,0,0.1,0.4,0.1,0.4l0.3,1.1l0.5-0.3l0.2-1l0.5-0.9c0,0,0.5-1.1,0.6-1.1s0,0.4,0,0.4l0.3,0.8
				c0,0,0.1,0.6,0.1,1c0.1-0.2,0.2-0.3,0.2-0.3l0.3-0.6l0.4,0.3l0.3,0.7l0.2-0.2l0.5,0.2l0.5-0.6c0,0,0.3-1.1,0.6-1.1
				c0.2,0.1,0.2,0.8,0.2,0.8l0.4,1l-0.2,1.2l-0.4,0.6l0.6,1.1l0.6,0.3v0.9l0.4,0.7l0.5,1.1l0.5-1.5l0.5-0.3l0.2-0.7l0.3-0.8l0.7-0.7
				v-1.2c0,0,0.7-1.2,1-1.2s0.1,0.4,0.1,0.4l0.1,1.1l-0.1,0.8l0.6,0.7l-0.1,1.1l0.4-0.2l0.6-0.6l0.4,0.6l0.6,1.1l0.3-0.4l1.1-0.3
				L393,36l0.2-0.9l0.2-1.1l0.3-1.1l0.4-0.9l0.1-1.2l0.5-1c0,0,0.5-0.8,0.8-0.8c0.3,0.1,0.4,1.1,0.4,1.1l0.1,0.5l-0.1,1.4l0.2,0.9
				l0.1,0.8l-0.1,1.2l-0.3,0.8h0.7l0.4-0.4l0.8-0.1l0.9-0.6l0.2-0.9l0.2-0.6l0.2-0.6l0.4-0.9l0.9-0.1l0.6-0.7l0.3-1.7l0.8-0.3
				l0.1-1.1v-0.6l0.6-1.2l0.6-0.8c0,0,0.2-0.1,0.4-0.1c0.3,0,0,1.3,0,1.3h0.7L405,26l0.7-0.9l0.4-0.8l0.6-0.7v-1l0.2-1l0.4-0.6v-1.3
				c0,0,0.2-0.6,0.4-0.6c0.2,0,0.1,0.4,0.1,0.4l0.3,1l0.1,0.7l-0.1,1.4l0.1,0.8l0.3,0.6l-0.1,1l0.1,0.7l-0.1,1l0.3-0.1l0.6-0.2
				l0.5,0.4v0.7l0.1,0.7l0.4,0.1l0.4,1.1l0.2-0.2l0.7-0.3l0.6-0.2l0.2-0.2l0.4-0.8l0.1-1l0.3-0.6l0.4,0.3L414,26l0.1-0.8l0.2-0.7
				l0.3-0.1l0.2-0.5l0.2-0.7c0,0,0.4-1.1,0.6-1.1s0.2,0.3,0.2,0.3V23l0.1,1.2l0.3,0.5l0.5-0.1l0.1-0.5l0.1-0.7l0.2-0.5l0.1-0.5
				l0.1-0.7l0.4-0.6h0.5v-0.5l0.3-0.9c0,0,0.4-1.4,0.6-1.5s0.2,0.3,0.2,0.3l0.1,0.6v0.6l0.1,0.5l-0.3,0.7l0.5,0.3v0.3l0.1,0.9
				l0.5,0.3l0.3-0.5l-0.3-0.5l0.3-0.2l0.2-0.7l0.1-0.6l0.6-1.1c0,0-0.2-0.6,0.4-0.8c0.6-0.1,0.1,0.4,0.1,0.4l0.5,1.3
				c0,0,0.1-0.2,0.2-0.1s0,0.5,0,0.5l0.3,0.8v0.9l0.3,0.2v1l0.2-0.2l0.4,0.2l0.4,0.5l0.2,0.2l0.1-0.1l0.2-0.8c0,0,0.1-0.4,0.2-0.2
				c0.1,0.2,0.3,0.6,0.4,0.7l0.1-0.2l0.7-0.6l0.2-0.2l0.3-0.7l0.2-0.9l0.1-0.7l0.4-0.6l0.5-1c0,0,0.1-0.3,0.4-0.4l0.1-0.7V17
				c0,0-0.2-0.3,0.2-0.2c0.4,0.1,0.3,1,0.3,1l0.3,0.7l0.1,1l0.1,0.8l0.6,1.1v1.2l0.2,0.5l0.1,0.6l0.1,0.4v0.2l0.2,0.2l0.8-0.5
				c0,0,0-0.5,0.4-0.2c0.4,0.2,0.2,0.8,0.3,1c0,0.1,0.1,0.3,0.1,0.4l2.8,0.1l0.1-0.1l0.3-1.1l0.3-0.7l0.4-0.1l0.1-0.7l0.1-1.1
				l0.4-0.4l0.4-1.1v-0.7c0,0-0.1-0.6,0.2-0.5c0.3,0.1,0.3,0.6,0.3,0.6l0.2,0.5l0.3,0.7l0.1,0.7l0.4,0.9l0.3-0.7l0.2-1.4l0.5-1.3
				l0.1-0.7l0.2-0.3l0.3-0.5l0.2-0.8l0.3-1c0,0-0.4-0.7,0.2-0.6c0.6,0.1,0.5,0.5,0.5,0.5l0.2,0.7l0.2,0.7v0.8l0.3,0.5l0.3,0.9
				l0.6,0.4l-0.2-0.9l0.2-0.7l0.3-0.7l0.5-0.8c0,0,0.3-0.4,0.5-0.3c0.3,0.1,0.7,0.7,0.7,0.7s0.2-0.6,0.3-0.5
				c0.2,0.2,0.3,0.6,0.3,0.6l0.2,0.7l0.2,0.7l0.1,0.4l0.1,0.8c0,0,0.2-0.5,0.4-0.5l4.8-14h3.8l0.1,0.3l121.7,14
				c0.1-0.2,0.1-0.6,0.3-0.6c0.3,0,1.3,0.2,1.6,0.4c0.1,0.1,0.2,0.2,0.3,0.3l1.9,0.1l0,0c0.1-0.2,0.6-0.2,0.8-0.1
				c0.1,0,0.2,0.1,0.3,0.2L778.9,29l0.5-0.6l0.2-0.8c0,0,0.1-0.4,0.2-0.2c0.1,0.2,0.4,0.8,0.4,0.8v0.5l0.4,0.4h0.1l0.8-1l0.2-0.9
				l0.3-0.4l0.2-0.7l0.1-0.6l0.2-1l0.2-0.9l0.2-1V22c0,0-0.2-0.3,0.2-0.2c0.4,0.1,0.2,0.9,0.2,0.9l0.2,0.6v0.9l0.1,0.8l0.5,1v1.1
				l0.1,0.4l0.1,1l0.3,0.2l0.7-0.5c0,0,0-0.4,0.4-0.2c0.4,0.2,0.2,0.7,0.2,0.9c0,0.1,0.1,0.3,0.1,0.4l2.6,0.1l0.1-0.1l0.3-1l0.2-0.7
				l0.4-0.1l0.1-0.6l0.1-1l0.4-0.3l0.3-1v-0.7c0,0-0.1-0.6,0.2-0.5s0.3,0.5,0.3,0.5l0.2,0.4l0.2,0.7l0.1,0.7l0.3,0.8l0.2-0.7
				l0.1-1.3l0.5-1.2l0.1-0.7l0.2-0.2l0.2-0.5l0.1-0.7l0.2-0.9c0,0-0.3-0.6,0.2-0.5s0.4,0.4,0.4,0.4l0.2,0.7l0.1,0.7v0.7l0.3,0.4
				l0.2,0.8l0.5,0.3l-0.2-0.8l0.1-0.6l0.3-0.7l0.4-0.8c0,0,0.2-0.4,0.5-0.2c0.3,0.1,0.6,0.7,0.6,0.7s0.1-0.6,0.3-0.4
				c0.2,0.1,0.3,0.6,0.3,0.6l0.1,0.6l0.1,0.6l0.1,0.3l0.1,0.8c0,0,0.3-0.6,0.4-0.4c0.2,0.2,0.1,0.5,0.1,0.5l0.7,0.3l0.2,0.3l0.4,0.4
				l0.4-1.1c0,0-0.1-0.6,0-0.7s0.5,0.2,0.5,0.2l0.1-1.2l0.3-0.9l0.4-1.3v-0.5l0.3-1c0,0-0.1-0.5,0.2-0.4c0.3,0,0.6,1,0.6,1l0.1,1.5
				l0.5,0.7l0.1,0.5l0.6,0.3l0.1,0.7l0.9,0.2v0.6l-0.1,0.8v0.8l0.7-0.1h0.5l0.6-0.4c0,0,0.5-0.6,0.8-0.4c0.3,0.1,0.5,0.9,0.5,0.9
				l0.1,0.3v0.2l0.1,0.4h0.6l0.1,0.3h0.4l0.7,0.3l0.4-0.8c0,0,0.1-0.6,0.3-0.4c0.2,0.1,0.3,0.3,0.3,0.3v0.7l0.1,0.6v0.6l0.3,0.9
				c0,0,2.3,0.3,2.8,0.3c0.4,0,1.5,0.3,2.1,0.5c0.5,0.2,2,0.6,3.4,0.5s2.5,0.1,3.6,0.4c1,0.3,6,2.3,6.7,2.7s1.7,1.6,2,2s1,1,1.7,1.2
				s1.4,0,2.5,1.5s3.4,3.4,4,3.8c0.6,0.4,1.5,1,1.8,1.2c0.4,0.2,1.7,0.1,1.9,0.2c0.2,0.2,1.5,0.8,1.7,0.9c0.2,0,3-0.7,4.2-0.8
				s3.4-0.3,4.4-0.2s5.5,0.3,6.3,0.3s2.8,0.9,4.3,1.9s2.3,1.7,3.1,1.7s2.8-0.5,3.3-0.5s1.6-0.2,1.6-0.2s-2.9-1.4-2.2-4.7
				c0.8-3.7,5.6-3.3,5.6-3.3s0.6-1,0.9-1.2c0.2-0.2,0.3-0.5,0.3-0.8c-0.1-0.3-0.5-1.4-0.5-2s-0.3-1.2-0.4-1.6c0-0.3,0-1.2,0.5-1.7
				c0.6-0.4,1.2-0.9,1.6-1.1c0.4-0.2,1.3-0.2,1.7-0.2s2.4,0.1,2.8,0.1c0.3,0,2,0.1,2.5,0.3c0.4,0.2,0.7,0.4,0.7,0.4l0.3-0.3
				c0,0-0.1-0.3,0.2-0.6c0.2-0.2,0.2-0.7,0.4-0.7s0.5,0.2,0.7,0.2s1.6,0.8,1.6,1.5s0,1.8-0.6,1.9c-0.6,0.1-0.7-0.1-0.8,0.2
				c-0.1,0.2-0.4,0.3-0.4,0.3l-0.4,0.1c0,0,0.4,0.5,0.7,0.8c0.2,0.2,0.9,0.8,1.1,1c0.2,0.2,0.8,0.6,0.8,0.6s0.2,0.5,0.1,0.8
				c-0.2,0.3-0.3,0.6-0.3,0.6s0.3,0.9,0.2,1.1c0,0.2,0.4,0.5,0.4,0.7c-0.1,0.2-0.1,1-0.4,1c-0.4,0-0.7-0.3-0.8-0.4
				c-0.1-0.1-0.7-0.8-0.7-0.8l0.1,2.3c0,0,0.4,0.1,0.5,0.2c0.1,0.1,0.2,0.5,0.2,0.5s4.3,0.3,4.4,4.4c0.1,2.6-2.1,3.8-2.1,3.8
				s4.1,0,4.9,0.1c0.8,0.1,6.2,1.9,7.2,2.2s2.4-0.4,3,0c0.5,0.3,1.9-0.5,2.4-0.6s1.4-0.2,1.9,0.5c0.5,0.6,1.2,1.1,1.9,1.2
				c0.7,0.1,1.3,0.3,1.8,0.6c0.6,0.3,1.5,0.3,2.4,0.2c0.8-0.1,2.1,0.1,2.7,0.4c0.6,0.3,3.3,1,3.7,1.2s2.1,2.1,2.7,2.3
				c0.6,0.2,6.1,1.5,6.9,1.6c0.8,0.1,2.9,0.2,3.4,0.6c0.5,0.4,2.9,1.4,3.6,1.7c0.7,0.3,4,0.2,5.3,0.2s4.2,0.2,5.3,0.3
				s3.3-0.7,3.8-0.9s1.3-0.6,1.9-0.6c0.6,0,3,0,3.3,0c0.3-0.1,2.4,1.1,3.4,0.7c0.9-0.3,2-0.8,2.3-1c0.2-0.3,1.8,0,2-0.4
				c0.1-0.4,0.6-1,1-1.1s1-0.4,1.3-0.6c0.2-0.2,0.7-1.6,1.1-2.1c0.4-0.5,1-0.8,1.4-0.9c0.4,0,1.7-0.9,2.2-1.5s1.5-1.7,1.9-1.8
				c0.4-0.2,0.9-0.2,1.4-0.1c0.5,0.1,2,0.5,2.4,0.8c0.3,0.3,1.7,0.1,1.9,0.1c0.2-0.1,1.7-0.1,2.2,0c0.4,0.2,1.5,0.5,2.1,0.3
				s1.5-1.2,2-1.2s1.8-0.4,2.2-0.6c0.3-0.2,2.2-0.6,2.5-0.8c0.3-0.1,2.1-3.6,2.8-3.7c0.7-0.1,3.2-4.1,3.3-4.4
				c0.1-0.3,1.8-2.1,2.6-2.3s3.5-0.8,4-0.9c0.5-0.1,1.2,0.1,1.7,0.2c0.5,0.2,1.8-0.5,3.5,1.4s2.6,2.2,3,2.3s6.1,1.3,7,1.4
				c0.9,0.1,1.9,0.3,2.7,1c0.8,0.6,1.7,0.7,2.4,0.8c0.6,0.1,2.7,0.3,3.4,0.7c0.6,0.3,2.5,0.7,3.2,0.8c0.7,0,5.3-0.4,6.6-0.4
				c1.3,0,3.5,0.3,4,0.4c0.5,0.2,1.9,0.4,2.3,0.8c0.3,0.4,2.4,0.8,3,0.8s2.3,0.4,2.5,0.4c0.2,0.1,0.9,0.1,1.7,0.1
				c0.7-0.1,2.3-0.3,3.4-0.6s2.1-0.6,2.8-0.7c0.7-0.1,3-1.3,3.7-1.5s1.2-0.2,2-0.2s2.7,0,3,0c0.2,0,4.1-1.2,4.9-1.5
				c0.7-0.2,4-0.7,4.3-0.7l-0.1-0.1l0.2-0.1c0,0-0.2-0.9,0-1.1c0.2-0.2,0.1-0.8,0.2-1.1c0.1-0.4-0.1-1.9,0.1-2.6
				c0.1-0.8,0.5-2.2,0.8-2.9c0.2-0.7,0.3-1.1,0.3-1.5s-0.2-2-0.2-2s-0.7,0.6-0.8,0.7c-0.1,0.1-0.6-0.4-0.3-0.7
				c0.3-0.2,0.9-0.7,0.9-0.7s-0.2-0.7-0.4-0.9l-0.2-0.3c0,0-0.1,0.2-0.3,0.1c-0.2,0-0.2-0.4-0.2-0.4s-0.6,0.1-1,0.2
				c-0.3,0.1-0.9,0.2-0.9,0.2s-0.6-0.3-0.7-1.3s-0.1-1.2,0.3-1.4c0.4-0.1,2.4-0.4,2.4-0.4v-0.6c0,0-1.4-0.5-1.6-0.6
				s-0.5-0.8-0.4-1.6c0.1-0.8,0.1-1,0.3-1.1c0.2-0.2,0.3-0.3,0.2-0.6c0-0.2-0.1-0.5-0.3-0.7c-0.2-0.1-0.3-0.8-0.2-1.4
				c0.1-0.6,0.1-1,0.2-1.2s0-0.7,0.1-1c0-0.3,0.3-0.6,0.3-0.6s-0.4-0.2-0.4-0.9c0-0.7,0.2-1.2,0.6-1.5c0.4-0.3,0.8-0.5,1.4-0.7
				c0.6-0.1,1.5,0,2,0.2s1.5,0.4,1.7,0.6s0.4,0.5,0.4,0.8s0,0.5,0,0.5s0.4,0,0.7,0.2c0.3,0.2,0.5,0.5,0.5,0.7l0.1,0.2
				c0,0,1.3,0.2,1.1,0.5c-0.2,0.3-1.2,0.5-1.2,0.5s-0.1,0.2,0,0.4c0,0.2-0.1,0.2-0.1,0.4c-0.1,0.2,0.2,0.4-0.3,0.4h-0.5
				c0,0-0.2,0.4-0.1,0.6c0.1,0.1,0.5,0.2,0.5,0.5s0,0.4,0.2,0.7c0.2,0.2,0.5,0.7,0.6,1s0.1,1,0.3,1.5c0.2,0.6,0.3,0.9-0.1,1.1
				c-0.3,0.2-0.3,0.5-0.3,0.5s0.3,0.4,0.5,0.7c0.2,0.4,0.4,1,0.5,1.3s0.6,1.2,0.8,1.3c0.2,0.2,0.7,0.3,0.7,0.6
				c0,0.3,0.1,0.6-0.2,0.7c-0.2,0.1-0.6,0.2-0.6,0.2s-0.2-0.8-0.3-1c-0.1-0.2-0.6-0.9-0.8-1c-0.2-0.2-0.5-0.1-0.3,0.3
				s1.5,1.9,1.9,2.5c0.4,0.6,0.7,1,0.7,1.4s0.1,1.9,0.1,2.5l0.3,2.6c0.1,0.5,0,0.7-0.2,0.8c-0.2,0-0.2,0.3-0.2,0.3s0.6,0.1,1.2-0.1
				c0.6-0.1,0.6,0.4,0.6,0.4s0.9-0.4,1.3-0.3c0.4,0.1,0.8,0.1,1.3,0.1s1.9-0.3,1.9-0.3l0.1-0.2c0,0,0.3-2.2,0.2-3
				c-0.1-0.8,0.3-1.6,0.3-2.2c0-0.5,0.6-2.5,0.6-3s0.3-1,0.3-1.2s0.1-0.4,0-0.5c-0.2-0.1-0.2-0.1-0.6-0.1s-0.5,0.4-1.1,0.3
				s-1.1-0.2-1.3-0.3c-0.2-0.1-0.3,0-0.3,0.2c0.1,0.2-0.4,0.1-0.4-0.1s-0.1-0.6-0.1-0.6s-0.1,0-0.2,0.2c-0.1,0.3-0.4,0.1-0.4-0.2
				c0-0.3-0.5-1.8-0.5-2.5s0.2-2.1,0.6-2.8c0.4-0.7,0.5-0.9,0.7-1s0.2-0.1,0.3-0.3c0-0.2-0.4-1-0.3-1.6s0.2-1.1,0.4-1.5
				c0.2-0.4,0.3-0.6,0.2-1.1c-0.1-0.5-0.1-1.1,0.7-1.4c0.8-0.3,1.2-0.2,1.6-0.1c0.5,0.1,0.7,0.3,0.9,0.5c0.2,0.2,0.6,0.7,0.8,1
				c0.1,0.3,0,0.3,0.1,0.5c0,0.2,0.2,0.5,0.1,0.7c0,0.2,0.2,0.4,0.2,0.4s0.2,0,0.1-0.4c-0.2-0.4-0.4-0.6-0.1-1.1
				c0.3-0.4,1.1-0.7,1.5-0.6s0.9,0.3,1.1,0.7c0.1,0.4,0.7,0,1,0.3s0.4,0.4-0.1,0.6c-0.4,0.1-0.7,0.2-0.7,0.2s-0.2,0.2-0.2,0.4
				c0,0.2,0,0.2-0.2,0.5s0,0.5-0.4,0.4c-0.3,0-0.6,0.1-0.6,0.1s0.6,0.6,0.7,0.9c0,0.3,0.3,0.8,0.4,1.5s0.2,1.3,0.2,1.7
				c-0.1,0.4-0.3,0-0.4,0.1s-0.2,0.1-0.2,0.3c0,0.2,0.1,0.5-0.1,0.9c-0.1,0.5,0.2,0.3-0.1,0.5c-0.4,0.2-0.3,0.5-0.2,0.7
				c0.1,0.2,0.4,0.3,0.5,0.8s0,0.5,0,0.8c-0.1,0.3,0.7,1.1,0.9,1.5c0.2,0.4,0.3,0.5,0.3,1.2s0,1.6-0.2,2.1s-0.2,1.1-0.3,1.5
				c-0.1,0.4-0.1,0.4,0,0.5c0.1,0.2,0.4,0,0.8-0.1c0.3-0.1,0.9-0.2,0.9,0.2s-0.2,0.5-0.3,0.8c-0.1,0.3-0.4,0.5-0.1,0.5
				c0.2,0,1-0.2,1.1-0.2c0.2,0,1.1-0.5,1.3-0.6c0.2-0.1,0.5-0.4,0.5-0.5s0.2-1.3,0.2-2.2s0.3-2.5,0.3-3.1s0.6-1.4,0.7-2.2
				c0-0.7,0.1-1.3,0.1-1.7c0-0.4,0.2-0.1,0-0.4s-0.4-0.8-0.4-1.2c0-0.3-0.4-0.1-0.7-0.2c-0.3-0.1-0.5-0.4-0.1-0.8
				c0.4-0.5,0.8-0.7,0.8-0.7s-0.8-0.4-1.3-0.6s-1.1-0.7-0.8-1.3c0.3-0.6,0.6-0.8,1-0.7c0.4,0.1,1.6,0.7,1.8,0.8
				c0.2,0.1,0.3-0.5,0.1-0.6c-0.2-0.1-0.7-0.2-0.9-0.6c-0.2-0.4-0.3-0.4-0.4-0.6c-0.2-0.2,0-0.9,0.2-1.3c0.1-0.4,1-1.4,1.1-2
				c0.2-0.6,0.5-0.7,0.7-1c0.2-0.3,0.2-1,0.6-0.9s0.6-0.1,0.6-0.1s-1.1-0.6-0.9-1.3c0.3-0.7,0.7-1.3,1.5-1.5s1.5,0.2,1.9,0.6
				c0.4,0.3,0.8,0.6,1,0.8s0.2,0.6,0.2,0.6s0.5,0.3,0.9,0.5s0.6,0.6,0.4,1s-0.4,0.6-0.4,0.6s0.4,0.4,0.5,0.6s0.8,0.1,1,0.5
				s-0.1,0.5-0.4,0.5s-0.6,0.2-0.6,0.2s0,0.3-0.1,0.6c-0.2,0.3-0.2,0.5-0.4,0.6c-0.2,0-0.7,0-1,0s-0.2,0.5-0.2,0.5s0.4,0.9,0.4,1.4
				s0.1,0.9-0.1,1.1c-0.1,0.2-0.4-0.2-0.3-0.5s0-1-0.2-1.2s-0.2,0.1-0.1,0.7c0.1,0.5,0.3,0.9-0.1,1c-0.3,0.2-0.4,0.5-0.6,0.8
				c-0.3,0.2-0.6,0.4-0.5,0.7c0.1,0.2,0.2,0.5,0.3,0.6c0.2,0.1,1.2,0.2,1.7,0.4c0.6,0.1,1.2,0.3,1.4,0.6c0.2,0.3,0.5,1.2,0.8,2
				s0.3,1.2,0.5,1.7s0.1,0.7,0.2,1.2s0.2,0.6-0.2,0.7c-0.4,0.1-0.2,0.6,0,0.5c0.1,0,0.4-0.1,0.7-0.1c0.5-0.6,0.7-1.1,1.8-2.1
				c1.1-1,1.8-1.2,2.7-1.5c0.9-0.3,2.2-0.3,2.6-0.5c0.5-0.2,0.7-1.1,1.5-1.4s2.6-0.7,3-0.7s0.7-0.6,0.7-0.6l0.5-0.1l0.2-1.1l0.2-0.8
				l0.3-0.8l0.6-1.2l0.4,0.7v0.7l0.2,1l0.3,0.5l0.3-1l0.5-0.8l0.1-1.3l0.4-1.1l0.4-0.2l0.2-1l0.1-1.1l0.5,0.8l0.4-0.6l0.7-0.1v-1.2
				l0.2-1.2l0.4-1l0.3,0.6l0.3,0.3l0.6,0.3l0.2,0.5l0.4-0.8l0.9-1.7l0.2-1l0.1-1.4l0.4-1l0.1-1.3l0.1-0.6l0.5,1.7l0.3,1.1l0.2,0.7
				l0.6,1.2l-0.2,1.4l0.6,1.4l0.7-0.5l0.5,0.7l0.2,0.8l0.7-0.1l0.4,1l0.2,0.3l0.1-0.5h0.4l0.7-0.7l0.3-0.5l0.3-0.9l0.1-0.8l0.7-0.3
				l-0.1-0.8l0.2-1.1l0.5-0.4l0.2-0.9l0.2-0.7l0.2,1.1l0.4,0.8l0.1,0.3l0.5,0.1l0.4-1.1l0.1-0.9l0.2-0.6l0.5-0.9l0.3-1l0.3-1.4
				l0.2-0.4l0.3,1.6l0.5,1l0.4,1.1l0.4,0.7l0.3-1.4l0.5-1.3l0.2-0.5l0.4-0.4l0.5,1.1l0.4-0.6l0.4-0.2l0.2,1l0.2,1l0.1,0.6l0.3,0.6
				l0.9,0.4v0.9l0,0l0.3-0.7l0.3-0.5l0.1-1l0.2-0.6c0,0-0.2-0.4,0.2-0.5c0.4-0.1,0.4,0.4,0.4,0.4l0.4,1.1l0.4,0.6l0.1,0.7l0.1,1
				l0.2,0.7l0.2,0.3l0.6,0.7l0.1,0.7l0.4,0.3l0.6-0.5l0.4-0.5l0.4-0.2l0.2,0.2l0.1-1l0.3-0.2l0.1-0.8l0.4-0.7c0,0,0-0.5,0.1-0.5
				c0.1-0.1,0.2,0.1,0.2,0.1l0.6-1.2c0,0-0.4-0.6,0.2-0.4c0.6,0.2,0.3,0.8,0.3,0.8l0.5,1.2v0.6l0.2,0.7l0.3,0.2l-0.4,0.4l0.2,0.5
				l0.5-0.2l0.2-0.8l0.1-0.3l0.6-0.3l-0.2-0.7l0.2-0.5l0.1-0.6l0.2-0.6c0,0,0-0.4,0.3-0.3c0.2,0.1,0.4,1.5,0.4,1.5l0.2,1l-0.1,0.5
				l0.5,0.1l0.3,0.7v0.7l0.1,0.5l0.1,0.5l0.1,0.7l0.1,0.5l0.5,0.2l0.3-0.5l0.3-1.2l0.1-0.6c0,0,0.1-0.3,0.3-0.3
				c0.2,0,0.4,1.2,0.4,1.2l0.1,0.7l0.1,0.5l0.3,0.2l0.1,0.7v0.8l0.3,0.5l0.4-0.3l0.3,0.6v1l0.3,0.8l0.2,0.2l0.6,0.3l0.6,0.4l0.2,0.2
				l0.5-1l0.4-0.1l0.2-0.7l0.1-0.7l0.6-0.4l0.6,0.3l0.3,0.1l0.1-1l0.2-0.6l0.1-1l0.4-0.6l0.2-0.7l0.1-1.4l0.2-0.6l0.4-1
				c0,0-0.1-0.4,0.2-0.4c0.2,0,0.3,0.6,0.3,0.6l-0.2,1.3l0.3,0.7l0.1,1.1l-0.1,1l0.5,0.8l0.3,0.8l0.6,1l0.2,0.4l0.7,0.1
				c0,0,0-1.4,0.2-1.3s0.4,0.2,0.4,0.2l0.5,0.8l0.5,1.3l-0.1,0.6v1.1l0.7,0.4l0.1,1.7l0.5,0.8l0.9,0.2l0.3,0.9l0.1,0.6l0.2,0.6
				l0.1,1l0.9,0.7l0.7,0.2l0.3,0.5l0.7,0.1l-0.2-0.8v-1.2l0.2-0.7l0.3-0.9l0.1-1.4l0.2-0.5c0,0,0.2-1,0.5-1s0.7,0.8,0.7,0.8l0.4,1
				v1.2l0.3,1l0.2,1.1l0.1,1.2l0.1,1v1.5l1.1,0.5l0.3,0.5l0.7-1l0.5-0.5l0.5,0.6l0.4,0.2v-1.1l0.7-0.6v-0.8l0.2-1.1
				c0,0-0.2-0.5,0.1-0.4c0.3,0.1,0.9,1.3,0.9,1.3l-0.1,1.2l0.6,0.8l0.2,0.8l0.1,0.7l0.4,0.3l0.3,1.5l0.6-1.1l0.5-0.6l0.2-0.9
				l0.6-0.3l0.7-1.1l-0.3-0.6l-0.1-1.2l0.5-1c0,0,0-0.8,0.3-0.8c0.2,0,0.4,1.1,0.4,1.1l0.4,0.7l0.5-0.1l0.2,0.3l0.4-0.7l0.4-0.3
				l0.2,0.6c0,0,0.1,0.2,0.1,0.3c0-0.4,0.2-1,0.2-1l0.4-0.8c0,0-0.1-0.4,0.1-0.4c0.1,0,0.4,1.2,0.4,1.2l0.4,1l0.1,1l0.4,0.4l0.4-1.1
				c0,0,0-0.4,0.2-0.4s0.5,1.1,0.5,1.1l0.2,0.4V32l0.4,0.7l0.4,1l0.2,0.4l0.4,1.7l0.6,1.4l0.2,0.4l0.2,0.6l0.6-1.4l0.4-0.8l0.2-0.9
				l0.7-0.5l0.2-1l0.5-0.8l0.1-0.3l0.7,1.3l0.5,1.1l0.2,0.8l0.5,0.9l0.3-1.2l0.9-0.6l0.2-0.8l0.2-1c0,0,0.1-0.8,0.3-0.7
				c0.2,0,0.5,0.4,0.5,0.4l0.3,1.8l0.9,1.6l0.7,2.1l0.1,1.1l0.5-1.3l0.3-1.6l0.5-1.1l0.4-0.4l0.2-1l0.1-0.7c0,0,0-1.1,0.4-1.1
				s0.7,2,0.7,2l0.6,1.4l0.5,0.8l0.1,1.2l0.2,2l0.4,0.6l0.6,0.5l0.6-1.3l1.2-0.4l0.4-1.1l0.8-0.9l0.9-0.9l-0.8-1l-0.3-0.6l0.1-0.7
				l0.1-1.1l-0.2-0.5l0.3-0.8l0.6,0.1l0.8-0.2l0.3,0.2l0.6,0.4l0.3,0.9h0.5l0.1-0.9c0,0-0.3-0.6,0.2-0.6s0.6,0.3,0.6,0.3l0.1-0.7
				l-0.2-0.5c0,0-0.3,0-0.4-0.3c0-0.3,0.3-0.8,0.5-0.7c0.2,0.1,0.4,0.5,0.4,0.5l0.3-0.8l0.6-0.3l1.4-0.8l0.3-0.7
				c0,0,0.4-0.6,0.8-0.8c0.4-0.2,0.6,0.2,0.6,0.2l0.6-0.6l0.6-0.1l0.5-0.5l1.2-0.1l0.6,0.3l0.5,0.5l0.8,0.8l0.2,0.7l0.2,0.7l0.7,0.2
				l0.5-0.2l0.4-0.1l0.5,0.4c0,0,0.1-0.8,0.7-0.8s0.9,0.6,0.9,0.6l-0.3,0.5l0.2,0.3l0.7,0.2l0.4-0.7l0.4-0.3l1,0.2l0.1,0.5l0.2,0.2
				l0.3,0.9l0.7,0.5l-0.3,0.5l-0.2,0.4l0.5,0.4l0.1,0.6l-0.3,0.4l-0.3,0.4l0.3,0.4l1.2-0.3l0.7-0.8l0.7-0.2l0.1-1.2l0.4-0.5l0.7,0.1
				l0.5,0.6l0.2,0.6l-0.2,0.5l0.7-0.1l0.8-0.3l0.4-1l1.2,0.1l0.5-0.2l0.5,0.3l1,0.3l0.3,0.8l-0.2,0.5l-0.1,0.4l0.9,0.3v0.6l0.2,0.3
				l0.7,0.7l0.9,0.1c0,0,0.1,0,0.2,0c0-0.2,0-0.4,0-0.4l0.2-1.2l0.4-0.2l0.3-0.9l0.2-0.9c0,0,0.1-0.4,0.4-0.2
				c0.3,0.2,0.2,1.1,0.2,1.1l0.4,1l0.3,0.5l0.4-0.8l0.3-1l0.1-0.6l0.4-1.4l0.6-0.2l0.1-1.2l0.3-1.1l0.4-0.1l0.3,0.3l0.4,0.1l0.7-0.1
				l-0.4-0.8l-0.4-0.6l0,0c0.2-0.2,0.3-0.5,0-0.7c0,0,0-0.1,0-0.2h0.3l0.5-0.6l0.2-0.8c0,0,0.1-0.4,0.2-0.2c0.1,0.2,0.4,0.8,0.4,0.8
				v0.5l0.4,0.4h0.1l0.9-1.1l0.3-1l0.4-0.5l0.2-0.7l0.1-0.7l0.3-1.1l0.3-1l0.2-1.1V18c0,0-0.2-0.3,0.2-0.2c0.4,0.1,0.3,1,0.3,1
				l0.3,0.7l0.1,1l0.1,0.8l0.6,1.1v1.2l0.2,0.5l0.1,1.1l0.3,0.2l0.8-0.5c0,0,0-0.5,0.4-0.2c0.4,0.2,0.2,0.8,0.3,1
				c0,0.1,0.1,0.3,0.1,0.4l2.8,0.1l0.1-0.1l0.3-1.1l0.3-0.7l0.4-0.1l0.1-0.7l0.1-1.1l0.4-0.4l0.4-1.1v-0.7c0,0-0.1-0.6,0.2-0.5
				c0.3,0.1,0.3,0.6,0.3,0.6l0.2,0.5l0.3,0.7l0.1,0.7l0.4,0.9l0.3-0.7l0.2-1.4l0.5-1.3l0.1-0.7l0.2-0.3l0.3-0.5l0.2-0.8l0.3-1
				c0,0-0.4-0.7,0.2-0.6c0.6,0.1,0.5,0.5,0.5,0.5l0.2,0.7l0.2,0.7v0.8l0.3,0.5l0.3,0.9l0.6,0.4l-0.2-0.9l0.2-0.7l0.3-0.7l0.5-0.8
				c0,0,0.3-0.4,0.5-0.3c0.3,0.1,0.7,0.7,0.7,0.7s0.2-0.6,0.3-0.5c0.2,0.2,0.3,0.6,0.3,0.6l0.2,0.7l0.2,0.7l0.1,0.4l0.1,0.8
				c0,0,0.3-0.7,0.5-0.4c0.2,0.2,0.1,0.6,0.1,0.6l0.7,0.3l0.3,0.4l0.5,0.5l0.5-1.2c0,0-0.1-0.7,0.1-0.7c0.2-0.1,0.5,0.2,0.5,0.2
				l0.1-1.3l0.3-1l0.4-1.4v-0.5l0.4-1.1c0,0-0.1-0.5,0.2-0.5c0.3,0,0.7,1.1,0.7,1.1l0.1,1.6l0.6,0.8l0.2,0.5l0.6,0.4l0.1,0.8l1,0.3
				v0.6l-0.1,0.9l-0.1,0.8l0.7-0.1l0.5,0.1l0.6-0.5c0,0,0.5-0.6,0.9-0.5c0.3,0.2,0.5,1,0.5,1l0.1,0.4v0.3l0.1,0.4h0.6l0.1,0.3h0.4
				l0.7,0.3l0.5-0.8c0,0,0.2-0.6,0.3-0.5c0.2,0.1,0.3,0.3,0.3,0.3l-0.1,0.7l0.1,0.6l-0.1,0.7l0.3,1c0,0,2.5,0.3,3,0.4
				s1.6,0.3,2.2,0.6c0.6,0.3,2.2,0.6,3.6,0.5c1.5-0.1,2.7,0.1,3.8,0.4c1.1,0.3,6.4,2.4,7.1,2.9s1.8,1.7,2.2,2.1
				c0.4,0.4,1.1,1.1,1.8,1.3c0.7,0.2,1.5,0,2.7,1.6s3.6,3.6,4.3,4.1c0.7,0.5,1.6,1.1,2,1.3s1.8,0.1,2,0.2c0.2,0.2,1.6,0.9,1.8,1
				c0.2,0.1,3.2-0.7,4.5-0.8s3.7-0.4,4.7-0.3c1.1,0.1,5.9,0.3,6.8,0.4c0.8,0.1,3,1,4.6,2.1s2.5,1.9,3.3,1.9s3-0.5,3.5-0.6
				c0.1,0,0.2,0,0.3,0c0.2-0.2,0.4-0.5,0.6-0.8c-0.1-0.1-0.2-0.1-0.3-0.2l0.4-0.4c0.1,0,0.2,0,0.2,0.1c0.2-0.3,0.5-0.7,0.7-1
				l0.1-0.1c0.1-0.1,0.1-0.2,0.1-0.2c0.5-0.7,0.8-1.3,0.9-1.4c0.2-0.3,1.9-2.2,2.8-2.5s3.7-0.8,4.2-1c0.5-0.1,1.3,0.1,1.9,0.3
				c0.5,0.2,1.9-0.5,3.8,1.5c1.8,1.9,2.6,2.3,3.1,2.5v-0.3c0.3,0.1,0.7,0,0.7-0.4c0-0.2,0-0.4,0-0.5c0.3,0,0.5-0.1,0.5-0.5v-1.1h0.2
				l0.5-0.8h0.6v-0.8h0.3v-0.7c0,0-0.2-0.4,0.3-0.3c0.4,0.1,0.9,0.5,0.9,0.5l0.1,0.3l0.1,0.3l0.5,0.2l0.8-0.3l0.6-0.3v-0.6l-0.4-0.3
				l0.1-0.7l0.3-0.6l0.6-0.6l0.4-0.5l0.3-0.4l0.2-0.7l0.3-0.5l0.1-1l0.1-0.6c0,0-0.2-0.4,0.1-0.5c0.4-0.1,0.4,0.4,0.4,0.4l0.4,1
				l0.4,0.6l0.1,0.7l0.1,1l0.2,0.7l0.2,0.3l0.6,0.7l0.1,0.7l0.4,0.3l0.6-0.5l0.4-0.5l0.4-0.2l0.2,0.2l0.1-1l0.3-0.2l0.1-0.8l0.4-0.7
				c0,0,0-0.5,0.1-0.5c0.1-0.1,0.2,0.1,0.2,0.1l0.6-1.2c0,0-0.4-0.6,0.2-0.4s0.3,0.8,0.3,0.8l0.5,1.2v0.6l0.2,0.7l0.3,0.2l-0.4,0.4
				l0.2,0.5l0.5-0.2l0.1-0.8v-0.3l0.6-0.3l-0.2-0.7l0.1-0.5l0.1-0.6l0.1-0.6c0,0,0-0.4,0.3-0.3c0.2,0.1,0.5,1.5,0.5,1.5l0.2,0.9v0.5
				h0.5l0.3,0.7V35l0.1,0.5l0.1,0.5l0.1,0.7l0.1,0.5l0.5,0.2l0.3-0.5l0.2-1.2v-0.6c0,0,0-0.3,0.3-0.3c0.2,0,0.4,1.2,0.4,1.2l0.1,0.7
				l0.1,0.5l0.3,0.2l0.1,0.7v0.8l0.3,0.5l0.4-0.3l0.3,0.6v1l0.3,0.8l0.2,0.2l0.6,0.3l0.6,0.4l0.2,0.2l0.5-1l0.4-0.1l0.2-0.7v-0.7
				l0.6-0.4l0.6,0.3l0.3,0.1v-1l0.1-0.6v-1l0.4-0.6l0.2-0.7l0.1-1.4l0.2-0.6l0.4-1c0,0-0.1-0.4,0.1-0.4s0.3,0.6,0.3,0.6l-0.1,1.3
				l0.3,0.7l0.1,1.1l-0.1,1l0.5,0.8l0.3,0.8l0.6,1l0.2,0.4l0.7,0.1c0,0-0.1-1.4,0.2-1.3c0.3,0.1,0.4,0.2,0.4,0.2l0.5,0.8l0.4,1l0,0
				l0.1-0.7l0.3-1.1l0.3-1l0.2-1.1V36c0,0-0.2-0.3,0.2-0.2c0.4,0.1,0.3,1,0.3,1l0.3,0.7l0.1,1l0.1,0.8l0.6,1.1v1.2l0.2,0.5l0.1,1.1
				l0.3,0.2l0.8-0.5c0,0,0-0.5,0.4-0.2c0.4,0.2,0.2,0.8,0.3,1c0,0.1,0.1,0.3,0.1,0.4l1.8,0.1c0.1-0.3,0.2-0.8,0.4-0.8
				c0.3,0,0.6,0.6,0.7,0.8l0,0l0.3-1.1l0.3-0.7l0.4-0.1l0.1-0.7l0.1-1.1l0.4-0.4l0.4-1.1v-0.7c0,0-0.1-0.6,0.2-0.5
				c0.3,0.1,0.3,0.6,0.3,0.6l0.2,0.5l0.3,0.7l0.1,0.7l0.4,0.9l0.3-0.7l0.2-1.4l0.5-1.3l0.1-0.7l0.2-0.3l0.3-0.5l0.2-0.8l0.3-1
				c0,0-0.4-0.7,0.2-0.6c0.6,0.1,0.5,0.5,0.5,0.5l0.2,0.7l0.2,0.7v0.8l0.3,0.5l0.3,0.9l0.6,0.4l-0.2-0.9l0.2-0.7l0.3-0.7l0.5-0.8
				c0,0,0.3-0.4,0.5-0.3c0.3,0.1,0.7,0.7,0.7,0.7s0.1-0.6,0.3-0.5c0.2,0.2,0.3,0.6,0.3,0.6l0.2,0.7l0.2,0.7l0.1,0.4l0.1,0.8
				c0,0,0.3-0.7,0.5-0.4c0.2,0.2,0.1,0.6,0.1,0.6l0.7,0.3l0.3,0.4l0.5,0.5l0.5-1.2c0,0-0.1-0.7,0.1-0.7c0.2-0.1,0.5,0.2,0.5,0.2
				l0.1-1.3l0.3-1l0.4-1.4v-0.5l0.4-1.1c0,0-0.1-0.5,0.2-0.5c0.3,0,0.7,1.1,0.7,1.1l0.1,1.6l0.6,0.8l0.2,0.5l0.6,0.4l0.1,0.8l1,0.3
				v0.6l-0.1,0.9L1439,40l0.7-0.1l0.5,0.1l0.6-0.5c0,0,0.5-0.6,0.9-0.5c0.3,0.2,0.5,1,0.5,1l0.1,0.4v0.3l0.1,0.4h0.6l0.1,0.3h0.4
				l0.7,0.3l0.5-0.8c0,0,0.1-0.6,0.3-0.5c0.2,0.1,0.3,0.3,0.3,0.3l-0.1,0.7l0.1,0.6l-0.1,0.7l0.2,0.7c0.8-0.1,1.5-0.2,1.6-0.2
				l-0.1-0.1l0.1-0.1c0.1,0.1,0.2,0.1,0.3,0.1c1.1-0.2,2.1-0.6,3-1.1c0.1,0,0.2,0,0.3,0c0.3-0.1,0.6-0.2,1-0.4
				c1.9-0.5,3.9-1.2,5.8-1.9c0.9,0.1,1.7,0.2,2.6,0.3c2.4,0.2,4.6-0.6,6.8-1.2c2.5-0.7,4.7-1.5,7.1-2.4c2.2-0.9,4.6-0.7,6.8-1.5
				c2.2-0.9,3.9-3,5.9-4.3c2.2-1.5,4.7-3.5,5.7-6.1c0.2,0,0.3-0.1,0.4-0.1c0.5-0.3,0.7-1.2,1.6-1.5c0.8-0.3,2.8-0.7,3.2-0.7
				c0.5,0,0.7-0.6,0.7-0.6l0.5-0.1l0.2-1.1l0.2-0.8l0.3-0.9l0.6-1.2l0.4,0.7v0.7l0.2,1l0.3,0.5l0.3-1l0.5-0.8l0.1-1.4l0.4-1.1
				l0.4-0.2l0.2-1l0.1-1.2l0.5,0.8l0.4-0.6l0.7-0.1v-1.2l0.2-1.3l0.4-1.1l0.3,0.6l0.3,0.3l0.6,0.3l0.2,0.5l0.4-0.9l0.9-1.8l0.2-1.1
				l0.1-1.5l0.4-1.1l0.1-1.4l0.2-0.6l0.5,1.8l0.3,1.2l0.2,0.8l0.6,1.2l-0.2,1.5l0.6,1.5l0.7-0.5l0.5,0.8l0.2,0.9l0.8-0.1l0.4,1.1
				l0.3,0.3l0.1-0.5h0.4l0.8-0.7l0.3-0.5l0.3-0.9l0.2-0.9l0.7-0.3l-0.1-0.8l0.2-1.2l0.5-0.4l0.2-1l0.2-0.8l0.3,1.1l0.4,0.9l0.1,0.3
				l0.5,0.1l0.4-1.1l0.2-1l0.2-0.6l0.5-1l0.3-1l0.3-1.5l0.2-0.4l0.3,1.7l0.5,1.1l0.5,1.1l0.4,0.8l0.3-1.5l0.5-1.4l0.2-0.5l0.4-0.4
				l0.5,1.2l0.4-0.6l0.4-0.2l0.2,1.1l0.2,1l0.1,0.6l0.3,0.6l0.8,0.4V6.3c0,0-0.2-0.4,0.3-0.3c0.4,0.1,0.9,0.5,0.9,0.5l0.1,0.3
				l0.1,0.3l0.5,0.2l0.8-0.3l0.6-0.3V6.1l-0.4-0.3l0.1-0.7l0.3-0.6l0.6-0.6l0.4-0.5l0.3-0.4l0.2-0.7l0.3-0.5l0.1-1l0.1-0.4H0v15.4
				 M832,28c0.8-3.3,4.5-3.4,5.3-3.2c0.8,0.2,1.2,0.2,1.2,0.2s0.7-0.6,0.8-0.6s-1.8-1.6-2.5-2.2s-1.1-1.6-1.1-2.4s0.7-1.7,0.7-1.7
				s-0.7-0.9-0.6-1.4c0.1-0.5,0-0.7,0.2-0.8c0.2-0.2,0.7-0.2,1-0.3s1.2-0.6,1.6-0.5c0.3,0.1,0.8-0.1,1.1-0.2
				c0.3-0.2,0.6-0.3,0.7-0.2s0.3,0.5,0.5,0.6c0.1,0,0.4,0.1,0.6,0c0.2-0.1,0.2-0.9,0.9-1.2c0.6-0.3,1.4-0.1,1.8,0.2s0.6,1,0.5,1.2
				s0.1,0.4-0.1,0.7l-0.2,0.2c0,0,1,0.3,1.4,0.7c0.4,0.3,0.8,0.6,1,0.7s1.3,0.4,1.4,0.5c0.1,0.1,0.1,0.8,0.1,0.8s0.4,0.5,0.3,0.6
				c-0.1,0.2-0.5,0.4-0.5,0.4l0.1,0.7c0,0,0.5,0.8,0.5,1s0,1.2,0,1.2l-0.1,0.2l1.1,1.7c0,0,4.5-1,5.9,3.2c0.9,2.7-0.8,5.2-3.3,5.3
				c-2,0.1-5-1.2-5.3-4.4c-0.2-2.7,1.5-3.6,1.5-3.6l-0.8-1.2c0,0-0.6,0.4-0.7,0.7c-0.1,0.3-0.7,1.3-0.7,1.3s0.8,0.5,0.5,0.7
				s-0.5,0.3-0.8,0.3s-0.2,0.1-0.4,0.2c-0.2,0.2-0.4,0.2-0.5,0.2s-0.3,0.3-0.8,0.5s-0.4,0.3-0.5,0.6c-0.1,0.3,0,0.5-0.6,0.7
				s-1.1,0.2-1.2,0.2c-0.1,0.1-0.2,0.2-0.2,0.2s0.7,0.5,0.5,0.8c-0.2,0.2-0.4,0.2-0.8,0.1l-0.3-0.1c0,0-1.6,3-4.5,2.9
				C833.6,33.7,831.2,31.3,832,28z"/>
			<path class="st1" d="M836.3,32.7c2.5,0.2,3.6-2.1,3.6-2.1l-0.4-0.4c0,0-0.5-0.2-0.8-0.3c-0.3-0.2-0.2-0.5-0.2-0.5l-0.7-0.1
				c0,0,0.3,0.1-0.1,0.5c-0.4,0.4-1.2,0.3-1.6,0.2c-0.4-0.1-0.4-0.7-0.5-1.3c0-0.6,0.6-0.6,0.6-0.6l0.5-0.6l1.2-1.7
				c0,0-0.4-0.2-1-0.2s-3.2,0.2-3.9,2.4C832.3,30.5,833.8,32.6,836.3,32.7z"/>
			<path class="st1" d="M1110.4,16.5c0.1-0.3-0.2-0.4-0.4-0.4l-0.2-0.1c0,0,0.1,0.3,0.1,0.6c0,0.2,0.1,0.6,0.1,0.6
				S1110.3,16.7,1110.4,16.5z"/>
			<path class="st1" d="M837.6,28.3c0,0.2,0.1,0.3,0.1,0.3l1.7-0.1c0,0,0.3-0.6,0.3-0.7s-0.1-0.5-0.1-0.5s-0.1-0.3-0.3-0.5
				s-0.7-0.4-0.7-0.4l-1.5,1.8C837.1,28.1,837.6,28.1,837.6,28.3z"/>
			<path class="st1" d="M842.6,19.9c0.1,0.1,0.5,0,0.7,0.2s0.2,0.8,0.2,0.8s1.5,0.8,1.7,0.9s0.8,0,0.8,0s0.1-0.3,0.3-0.4
				c0.2,0,0.5-0.1,0.6-0.3s0.3-0.5,0.2-0.7s-0.3-0.2-0.2-0.4c0.1-0.2,0.3-0.2,0.3-0.2s-0.3-0.4-0.4-0.7c-0.1-0.2-0.2-0.4-0.4-0.5
				c-0.2-0.2-0.8-0.3-1.1-0.4s-0.9-0.4-1.2-0.5s-1.1-0.4-1.2-0.5c-0.1-0.1-0.3,0.1-0.5,0.2c-0.2,0.2-0.4,0.2-0.3,0.4
				c0.1,0.2,0.2,1.2,0.3,1.3C842.4,19.4,842.5,19.8,842.6,19.9z"/>
			<path class="st1" d="M839.8,25.4c-0.1-0.1-0.5,0.1-0.5,0.1l0.5,0.5C839.8,26,840,25.5,839.8,25.4z"/>
			<polygon class="st1" points="877.8,42.5 878.9,42.1 878.9,41.9 877.8,42.2 			"/>
			<path class="st1" d="M1539.2,0c0.6,0.2,0.3,0.8,0.3,0.8L1540,2v0.6l0.2,0.7l0.3,0.2l-0.4,0.4l0.2,0.5l0.5-0.2l0.1-0.9L1541,3
				l0.6-0.3l-0.2-0.7l0.1-0.5l0.1-0.6l0.1-0.6c0,0,0-0.4,0.3-0.3c0.2,0.1,0.5,1.5,0.5,1.5l0.2,0.9v0.5h0.5l0.3,0.7v0.7l0.1,0.5
				l0.1,0.5l0.1,0.7l0.1,0.5l0.5,0.2l0.3-0.5l0.2-1.2V4.4c0,0,0-0.3,0.3-0.3c0.2,0,0.4,1.2,0.4,1.2l0.1,0.7l0.1,0.5l0.3,0.2l0.1,0.7
				v0.8l0.3,0.5l0.4-0.3l0.3,0.6v1l0.3,0.8l0.2,0.2l0.6,0.3l0.6,0.4l0.2,0.2l0.5-1l0.4-0.1l0.2-0.7V9.4l0.6-0.4l0.6,0.3l0.3,0.1v-1
				l0.1-0.6v-1l0.4-0.6l0.2-0.7l0.1-1.4l0.2-0.6l0.4-1c0,0-0.1-0.4,0.1-0.4s0.3,0.6,0.3,0.6l-0.1,1.3l0.3,0.7l0.1,1.1l-0.1,1
				l0.5,0.8l0.3,0.8l0.6,1l0.2,0.4l0.7,0.1c0,0-0.1-1.4,0.2-1.3c0.2,0.1,0.4,0.2,0.4,0.2l0.5,0.8l0.4,0.9l0,0l0.1-0.7l0.3-1.1l0.3-1
				l0.2-1.1V5.9c0,0-0.2-0.3,0.2-0.2c0.4,0.1,0.3,1,0.3,1l0.3,0.7l0.1,1l0.1,0.8l0.6,1.1v1.2l0.2,0.5l0.1,1.1l0.3,0.2l0.8-0.5
				c0,0,0-0.5,0.4-0.2c0.4,0.2,0.2,0.8,0.3,1c0,0.1,0.1,0.3,0.1,0.4l1.8,0.1c0.1-0.3,0.2-0.8,0.4-0.8c0.3,0,0.6,0.6,0.7,0.8l0,0
				l0.3-1.1l0.3-0.7l0.4-0.1l0.1-0.7l0.1-1.1l0.4-0.4l0.4-1.1V8c0,0-0.1-0.6,0.2-0.5c0.3,0.1,0.3,0.6,0.3,0.6l0.2,0.5l0.3,0.7
				l0.1,0.7l0.4,0.9l0.3-0.7l0.2-1.4l0.5-1.3l0.1-0.7l0.2-0.3l0.3-0.5l0.2-0.8l0.3-1c0,0-0.4-0.7,0.2-0.6c0.6,0.1,0.5,0.5,0.5,0.5
				l0.2,0.7l0.2,0.7v0.8l0.3,0.5l0.3,0.9l0.6,0.4l-0.2-0.9l0.2-0.7l0.3-0.7l0.5-0.8c0,0,0.3-0.4,0.5-0.3c0.3,0.1,0.7,0.7,0.7,0.7
				s0.2-0.6,0.3-0.5c0.2,0.2,0.3,0.6,0.3,0.6l0.2,0.7l0.2,0.7l0.1,0.4l0.1,0.8c0,0,0.3-0.7,0.5-0.4c0.2,0.2,0.1,0.6,0.1,0.6l0.7,0.3
				l0.3,0.4l0.5,0.5l0.5-1.2c0,0-0.1-0.7,0.1-0.7c0.2-0.1,0.5,0.2,0.5,0.2l0.1-1.3l0.3-1l0.4-1.4V3.6l0.4-1.1c0,0-0.1-0.5,0.2-0.5
				c0.3,0,0.7,1.1,0.7,1.1l0.1,1.6l0.6,0.8l0.2,0.5l0.6,0.4l0.1,0.8l1,0.3v0.6L1584,9l-0.1,0.8l0.7-0.1l0.5,0.1l0.6-0.5
				c0,0,0.5-0.6,0.9-0.5c0.3,0.2,0.5,1,0.5,1l0.1,0.4v0.3l0.1,0.4h0.6l0.1,0.3h0.4l0.7,0.3l0.5-0.8c0,0,0.1-0.6,0.3-0.5
				c0.2,0.1,0.3,0.3,0.3,0.3l-0.1,0.7l0.1,0.6l-0.1,0.7l0.3,1c0,0,2.5,0.3,3,0.4c0.5,0.1,1.6,0.3,2.2,0.6s0.7,0.6,2.1,0.5
				c0.3,0,2,0.9,2.3,0.9l0.1-15.8L1539.2,0C1539.1,0,1539.1,0,1539.2,0z"/>
			<path class="st1" d="M579.2,20.2c0.2,0.3,1.2,1.2,1.3,1.4c0.1,0.2,0.5,0.9,0.5,0.9l0.1-1.2c0,0-0.3-0.4-0.3-0.7
				c0-0.1-0.1-0.3-0.1-0.5l-1.6-0.1C579.1,20,579.1,20.1,579.2,20.2z"/>
			<path class="st1" d="M1106.7,27.8c0,0-0.3-0.1-0.4,0s-0.5,0.9-0.6,1.3s-0.1,1.3-0.2,1.9c-0.1,0.5-0.3,0.9-0.5,1.6
				c-0.3,0.6-0.3,1.6-0.3,2.4c-0.1,0.7-0.2,1.7-0.2,1.7v0.2c0.6-0.2,1.6-0.7,2.5-1.1h0.1c0.7-0.3,1.2-0.5,1.5-0.6
				c0.2-0.1,0.4-0.2,0.7-0.3c0.4-0.4,0.4-0.3,0.6-0.4c0.1-0.1,0.2-0.1,0.4-0.1c0.3-0.2,0.5-0.3,0.6-0.4l0.1-0.1
				c-0.1-0.1,0-0.2,0-0.6c0-0.4,0.1-0.7-0.3-0.8c-0.3-0.1,0,0-0.1-0.4c-0.1-0.4-0.2-0.9-0.3-1.7c-0.1-0.8-0.6-1.7-0.6-2
				s-0.2-0.6-0.7-0.6s-1.5,0.1-1.5,0.1s-0.2,0.3-0.2,0.6c0,0.3-0.2,0.6-0.5,0.8c-0.4,0.2-0.6,0.3-0.7-0.1c-0.1-0.3,0.2-0.3,0.4-0.8
				C1106.6,27.8,1106.7,27.8,1106.7,27.8z"/>
			<path class="st1" d="M1539,0h-5.7l0.3,0.8l0.4,0.6l0.1,0.7l0.1,0.9l0.2,0.7l0.2,0.3l0.6,0.7l0.1,0.7l0.4,0.3l0.6-0.5l0.4-0.5
				l0.4-0.2l0.2,0.2l0.1-1l0.3-0.2l0.1-0.8l0.4-0.7c0,0,0-0.5,0.1-0.5c0.1-0.1,0.2,0.1,0.2,0.1l0.6-1.2C1539.1,0.5,1538.7,0,1539,0z
				"/>
			<path class="st1" d="M1529,73h15v-0.1L1529,73L1529,73z"/>
			<path class="st1" d="M1096.7,33.5c0-0.2-0.4-0.6-0.4-0.4c0,0.2-0.3,0.8-0.4,1.2s-0.6,1.6-0.7,1.8c-0.2,0.2-0.4,1.1-0.3,1.6
				c0,0.5,0.2,2,0.2,2.3l1.4-0.3c0,0,0-0.3,0-0.5s-0.1-0.9-0.1-1.5c0-0.5,0.1-1,0.1-1.2s0-1,0.1-1.5
				C1096.6,34.5,1096.8,33.7,1096.7,33.5z"/>
			<path class="st1" d="M579.5,24.9c-0.1,0.1-0.9,0.8-0.9,0.8s0.2,0.3,0.4,0.6c0.2,0.3,0,0.3,0.2,0.3c0.2-0.1,0.5-0.5,0.6-0.8
				c0-0.4,0.1-0.8,0.1-1S579.7,24.8,579.5,24.9z"/>
			<path class="st1" d="M1080.4,44c0.2,0.1,0.3,0.2,0.2,0.5c0,0,0.3,0,0.5,0c0.9-0.3,2.1-0.8,2.6-1c0.2-0.1,0.5-0.2,0.9-0.3
				c-0.1-0.1-0.1-0.2-0.1-0.3c0-0.2-0.1-1.2-0.1-1.2s-0.3-0.2-0.4-0.3c-0.2-0.1,0.1-0.7,0.1-1.2c0-0.4,0.1-1.5,0.1-2
				s0.1-2.7-0.1-2.9s-1.2-0.6-1.4-0.8c-0.3-0.2-0.7-0.5-0.7-0.3s-0.1,0.7-0.1,1.1c0,0.4-0.1,1.1-0.4,2.1s-0.5,1.6-0.6,2.4
				c-0.1,0.8-0.3,1.1-0.2,1.6c0.1,0.4,0,1.2-0.1,1.7C1080.4,43.7,1080.1,43.9,1080.4,44z"/>
			<path class="st1" d="M581.2,22.9c0,0,0.3,0.4,0.3,0.6l-0.1,0.2c0,0,0.2,0.7,0.1,1s-0.4,0.4-0.4,0.4v1.7c0,0.3,0,1.3,0,1.3
				l0.7,0.6c0,0,1.1-0.9,1.2-1c0.1-0.1,0.7-0.1,0.9,0.3c0.3,0.3,0.5,0.5,0.5,0.5s1.3-0.7,1.7-0.7s1.2,0.5,1.5,0.7
				c0.2,0.2,2.2,0.9,2.4,0.9c0.2,0.1,0.7,0.1,0.9-0.1c0.3-0.2,0.7-0.1,0.8,0.1v0.2h0.3c0,0,0.4-0.4,0.7-0.4s1.1-0.3,1.5-0.5
				s0.7-0.7,1.1-0.3s0,1-0.2,1.2c-0.1,0.2-0.3,0.7-0.5,0.9c-0.2,0.2-0.3,0.1-0.5,0.2c-0.1,0.1-0.3,0.8-0.6,0.9s-0.6,0.5-0.8,0.3
				s-0.7-0.7-0.7-0.8c-0.1-0.2-0.9-0.1-0.9-0.1s-0.4,0.6-0.5,0.9S590.2,32,590,32c-0.2-0.1-0.9-0.8-0.9-0.8s-1.7,0-2.3,0.1
				c-0.5,0.1-1.4,0-1.4,0s-0.7,0.8-1,1.1s-2.2,1.8-2.4,1.9c-0.2,0.1-0.2,0.3-0.6,0.2c-0.4-0.1-0.3-0.2-0.7-0.1
				c-0.3,0.1-0.4,0.3-0.7,0.1s-0.6-0.4-0.6-0.4s-0.3,0.1-0.5,0c-0.1-0.1-1.4-1.3-1.9-1.9c-0.5-0.7-1.3-2.2-1.6-2.9
				c-0.3-0.7-0.6-2.1-0.6-2.7s0.4-1.2,0.5-1.3c0.1-0.1,0-0.3,0-0.3l-0.5-0.3l-0.2-0.5l0.1-0.4l-0.2-0.3c0,0-0.4-1.8,0.8-2.2
				c1.2-0.4,1.9,0.3,2.2,1s0.2,0.8,0.2,0.8v0.3l0.1,0.5c0,0,0.5-0.3,0.7-0.5c0.2-0.1,0.8-0.8,0.8-0.8s-0.4-1.2-0.5-1.5
				s-0.3-0.4-0.4-0.6c-0.2-0.2-0.1-0.4-0.5-0.5s-1-0.1-1.3-0.3c0,0-0.1,0-0.1-0.1L455.1,5.9l3.9,11.6l0.3-0.4l0.3-0.4l0.2-0.7
				l0.2-0.4l0.1-0.9l0.1-0.5c0,0-0.2-0.4,0.1-0.4c0.3-0.1,0.4,0.4,0.4,0.4l0.3,1l0.3,0.6l0.1,0.7l0.1,0.9l0.2,0.7l0.2,0.2l0.5,0.6
				l0.1,0.7l0.4,0.2l0.5-0.4l0.4-0.4l0.4-0.1l0.1,0.2l0.1-0.9l0.3-0.1l0.1-0.8l0.3-0.7c0,0,0-0.4,0.1-0.5s0.2,0.1,0.2,0.1l0.6-1.1
				c0,0-0.4-0.6,0.1-0.4c0.5,0.2,0.3,0.7,0.3,0.7l0.5,1.1V17l0.1,0.7l0.2,0.2l-0.3,0.4l0.2,0.5l0.5-0.2l0.1-0.8l0.1-0.2l0.5-0.2
				l-0.2-0.7l0.1-0.4l0.1-0.6l0.1-0.6c0,0,0-0.4,0.2-0.3c0.2,0.1,0.4,1.4,0.4,1.4l0.2,0.9l-0.1,0.4h0.5l0.2,0.6v0.6v0.4l0.1,0.5v0.7
				l0.1,0.5l0.5,0.2l0.3-0.4l0.2-1.1l0.1-0.6c0,0,0.1-0.3,0.2-0.3c0.2,0,0.4,1.1,0.4,1.1l0.1,0.6l0.1,0.5l0.3,0.1l0.1,0.6v0.7
				l0.3,0.4l0.4-0.2l0.2,0.6v0.9l0.2,0.7l0.2,0.2l0.5,0.2l0.6,0.4l0.1,0.2l0.5-0.9h0.4l0.2-0.6l0.1-0.6l0.5-0.3l0.5,0.2l0.3,0.1
				v-0.9l0.1-0.6l0.1-0.9l0.4-0.5l0.2-0.7l0.1-1.3l0.2-0.6l0.4-0.9c0,0,0-0.4,0.1-0.4s0.3,0.6,0.3,0.6l-0.1,1.2l0.3,0.6v1l-0.1,0.9
				l0.4,0.7l0.2,0.7l0.5,0.9l0.2,0.4l0.7,0.1c0,0,0-1.3,0.2-1.2c0.2,0.1,0.4,0.1,0.4,0.1l0.5,0.8l0.4,1.2l-0.1,0.6v1l0.7,0.4
				l0.1,1.6L484,29l0.8,0.2L485,30l0.1,0.5l0.1,0.5v0.9l0.8,0.6l0.7,0.2l0.3,0.4l0.7,0.1l-0.1-0.8v-1.1l0.2-0.7l0.3-0.8l0.1-1.3
				l0.1-0.4c0,0,0.2-0.9,0.4-0.9c0.3,0,0.6,0.8,0.6,0.8l0.3,0.9V30l0.3,0.9l0.1,1V33l0.1,0.9v1.4l1,0.4l0.2,0.4l0.7-0.9l0.4-0.5
				l0.5,0.6l0.3,0.2v-1l0.6-0.5v-0.8l0.2-1c0,0-0.2-0.5,0.1-0.4c0.3,0.1,0.8,1.2,0.8,1.2l-0.1,1.1l0.5,0.7l0.1,0.7l0.1,0.6l0.4,0.3
				l0.2,1.4l0.6-1l0.5-0.6l0.1-0.8l0.6-0.2l0.7-1l-0.3-0.6v-1.1l0.4-0.9c0,0,0-0.7,0.2-0.7s0.4,1,0.4,1l0.4,0.6l0.5-0.1l0.2,0.2
				l0.4-0.6l0.4-0.2l0.2,0.6c0,0,0.1,0.1,0.1,0.3c0-0.4,0.2-0.9,0.2-0.9l0.4-0.7c0,0-0.1-0.3,0-0.3s0.4,1.1,0.4,1.1l0.4,0.9l0.1,0.9
				l0.4,0.3l0.4-1c0,0,0-0.3,0.1-0.3c0.2,0,0.5,1,0.5,1l0.2,0.4v1l0.4,0.7l0.3,0.9l0.2,0.4l0.3,1.6l0.6,1.3l0.2,0.3l0,0
				c0.1,0,0.3,0,0.4,0l0.4-0.8l0.4-0.8l0.2-0.8l0.6-0.4l0.2-0.9l0.4-0.7l0.1-0.2l0.7,1.2l0.4,1l0.2,0.7l0.4,0.8l0.2-1.1l0.8-0.6
				l0.1-0.7l0.1-0.9c0,0,0.1-0.7,0.3-0.7s0.4,0.3,0.4,0.3l0.3,1.7l0.8,1.5l0.6,1.9l0.1,1l0.5-1.2l0.2-1.5l0.5-1l0.4-0.4l0.1-0.9
				v-0.6c0,0,0-1.1,0.4-1c0.3,0,0.6,1.9,0.6,1.9l0.5,1.3l0.5,0.8l0.1,1.1l0.1,1.8l0.3,0.6L522,43l0.6-1.2l1.1-0.3l0.4-1l0.8-0.8
				l0.9-0.8l-0.7-0.9l-0.2-0.6v-0.7l0.1-1l-0.2-0.4l0.2-0.7l0.6,0.1l0.7-0.1l0.2,0.2l0.5,0.3l0.3,0.8h0.4l0.1-0.8
				c0,0-0.3-0.6,0.1-0.5c0.4,0,0.6,0.3,0.6,0.3v-0.7l-0.2-0.4c0,0-0.3,0-0.4-0.3c0-0.3,0.3-0.8,0.5-0.7s0.4,0.4,0.4,0.4l0.3-0.7
				l0.5-0.3l1.3-0.7l0.2-0.6c0,0,0.4-0.6,0.8-0.7c0.4-0.2,0.5,0.2,0.5,0.2l0.5-0.6h0.6l0.4-0.5h1.1l0.5,0.2L536,30l0.8,0.8l0.1,0.7
				l0.2,0.7l0.6,0.1l0.4-0.2l0.3-0.1l0.5,0.3c0,0,0.1-0.7,0.6-0.7c0.6,0,0.8,0.5,0.8,0.5l-0.3,0.4l0.2,0.2l0.7,0.2l0.4-0.6l0.4-0.3
				l0.9,0.2l0.1,0.4l0.2,0.1l0.2,0.8l0.6,0.4l-0.2,0.5l-0.2,0.4l0.4,0.4v0.6l-0.2,0.4l-0.2,0.3l0.2,0.4l1.1-0.2l0.6-0.7l0.7-0.2
				v-1.1l0.4-0.4h0.7l0.5,0.5l0.1,0.6l-0.2,0.4l0.7-0.1l0.7-0.2l0.4-0.9h1.1l0.5-0.2l0.5,0.2l0.9,0.2l0.2,0.7l-0.1,0.4v0.3l0.8,0.3
				V37l0.1,0.2L555,38h0.8c0,0,0.7,0.1,0.5,0.1c-0.1,0,0.2,0.3,0.2,0.3s1.1,0.1,1,0.7c0,0.6-0.4,0.4-0.4,0.4l-1.3,0.3h-0.5v0.6
				l1.2,0.2l0.5,0.6l0.9-0.2l8.8-5.6l0.1-0.4l0.4,0.1l0.1,0.6l10.2,6.3l0.4-0.1l0.1,0.2v0.2l11.8,13.2c1.1-0.1,1.8,0,1.9,0
				c0.2,0.1,1.5-0.1,1.5-0.1l1.9,0.2l1.4,0.4l2.3,0.1c0,0,1-2,1.7-3.4l0.2-0.4c0.2-0.5,0.4-0.8,0.4-0.9c0.1-0.3,0.6-2.1,0.9-2.4
				c0.3-0.3,1.3-1.5,1.5-1.6s1.9-1.7,2.1-1.9c0.2-0.2,0.4-0.7,0.4-0.7s-0.1-1.2,0.2-1.5s1.1-0.8,1.6-0.7s1.2,1,1.4,1.4
				s0.3,0.5,0.8,0.6c0.5,0.2,0.5,0.7-0.3,0.6c-0.8-0.1-0.6,0.3-0.6,0.3l-0.3,0.2v0.7c0,0.2-0.2,0.3-0.3,0.3s-0.1,0.3-0.3,0.3
				s-0.3,0.1-0.3,0.4c0,0.3,0.4,0.9,0.8,1c0.4,0.1,1,0.3,1.6,0.5c0.5,0.3,1.7,2.6,2.1,3.4s2.1,2.5,2.3,3.1c0.2,0.5,0.5,0.9,0.5,0.9
				s6.9-0.3,8.7-0.2c1.8,0,7.3,0.1,8.1-0.1c0.7-0.2,3.9-1.2,5.1-1.3c1.2,0,2.2,0,3.4,0.1c1.1,0.2,3.6,0.6,5.1,0.3
				c0.6-0.1,1.9-0.2,3.3-0.3c0.1-0.3,0.3-0.5,0.3-0.6c0.1-0.2,0.3-0.5,0.5-0.6c0.2-0.2,0.3-0.2,0.5-0.2s0.4-0.1,0.4-0.1
				s-0.1-0.4-0.1-0.6c0-0.1-0.1-0.5-0.2-0.5c-0.1-0.1-0.4-0.6-0.5-0.6c-0.1-0.1-0.4-0.4,0.1-0.4c0.4-0.1,1.1-0.1,1.5-0.1
				c0.2,0,0.4,0,0.5,0h0.1V51c0,0-0.2-0.7,0-1.3c0.2-0.5,0.7-1,1-1.2s0.6-0.2,1-0.3h0.1c0.3,0,0.6,0.1,0.8,0.3
				c0.1,0.2,0.6,0.8,0.6,0.9c0,0.1,0.1,0.3,0.1,0.3s1,0.4,1.1,0.4c0.1,0.1,0,0.1-0.1,0.1s-0.3,0.1-0.5,0.2c-0.2,0.1-0.4,0.3-0.5,0.3
				h-0.1c0,0,0.2,0.3,0.3,0.5s-0.2,0.2-0.2,0.2l-0.1,0.4h-0.1v0.1c0,0.1,0.2,0.2,0.4,0.3c0.1,0.1,0.3,0.2,0.3,0.3s0,0.5,0,0.5
				s0.6,0.2,0.8,0.3s0.7,0.3,0.7,0.3l0.6-0.3c0,0,0-0.4,0-0.5c0.1-0.1,0.2-0.1,0.2-0.1s0.1-0.3,0.2-0.3h0.1h0.1h0.1h0.1
				c0,0,0.1-0.1,0.2-0.1l0,0h0.1h0.1h0.1h0.1l0.2,0.1c0.1,0.1,0.2,0.3,0.2,0.3l3.2-1.7l0.1-0.2l0,0l0.1,0.1l0.9-0.5
				c0,0,0.2-0.1,0.3-0.2c0.1,0,0.8-0.4,1-0.5s0.5-0.4,0.7-0.5s5.3-2.6,5.5-2.7h0.2c0.2,0,0.3,0.1,0.2,0.4c-0.1,0.5-1.5,1.3-2.2,1.7
				s-3.1,1.4-3.3,1.5s-1.4,0.4-1.6,0.4c-0.2,0.1-0.4,0.2-0.5,0.2l-0.2,0.1l-1,0.5c0,0,0.1,0.2-0.1,0.2c-0.2,0-0.2,0-0.2,0l-3.1,1.6
				c0,0,0.3,0.8,0.3,1.2c0,0.3-0.1,0.7-0.2,0.7c0,0-0.2,0.1-0.4,0.2c-0.2,0-1.2,0.2-1.8,0.2c-0.5,0-1.5-0.1-1.7-0.1l0,0
				c-0.1,0-0.3,0.1-0.3,0.1s0,0.2-0.1,0.5c1.5,0,4.1-0.1,4.5-0.2c0.6-0.1,1.4-0.5,2.6-0.7c1.2-0.2,3.4-0.7,5.2-1.1
				c1.8-0.4,6.9,0,8.7,0c1.7,0,7.3-1.3,7.7-1.2s7.4,1.5,8.2,1.5c0.8,0.1,5,0.3,6.2,0.3s2.9,0,2.9,0s0.4-0.4,0.4-0.7
				c0.1-0.3,0.1-0.9,0-1.3c-0.1-0.4-0.7-1.6-1-1.8c-0.2-0.2-0.6-0.7-0.6-1s-0.1-1.8-0.1-1.8l-0.1-0.6c0,0-0.7-0.3-0.5-0.6
				c0.1-0.3,0.3-1.6,0.3-2.1c0.1-0.4,0.5-1.5,0.5-1.9s0-1.1,0.1-1.4c0.1-0.3,0.2-1,0.4-1.3c0.1-0.2,0.3-0.6,0.3-0.6l-0.4-0.4
				c0,0-1.8,1.9-2.1,2.2c-0.2,0.2-0.2,0.8-0.3,1c-0.1,0.1-0.4,0-0.6-0.1c-0.2-0.2-0.3-0.5-0.1-0.7c0.1-0.2,0.5,0,0.8-0.3
				s2-2.2,2-2.2s-3.6,0.4-4.3,0.5s-5.4,1.5-6.1,1.8c-0.8,0.3-1.1,1-1.7,0.3c-0.6-0.6-2-3.3-1-4.9c1-1.6,3.7-2.1,6.9-2.7
				c3.2-0.6,12-1.4,12-1.4l0.3-0.3c0,0,0-1,0.7-1.8s2.2-2.6,2.7-3c0.5-0.3,0.8-0.3,1.1,0s0.7,0.7,0.1,1.3c-0.6,0.5-2.5,2.6-2.8,2.8
				c-0.3,0.2-1.4,0.8-1.4,0.8s10.2-0.7,19.8-0.8c9.7-0.1,17,0.2,17.8,2.3s-0.1,3.3-0.4,3.8c-0.3,0.4-0.7,0.5-1,0.2s-1.4-1-3.1-1.2
				c-1.6-0.2-7.6,0-7.6,0s1.4,0.1,1.2,1.4c-0.2,1.3-0.1,1.7-0.3,2.7c-0.2,0.9-0.1,1.1-0.3,1.5s-0.4,0.1-0.5,0.6s0.2,1.2,0.1,1.9
				c-0.1,0.7-0.1,2.2-0.1,2.8c0,0.2,0.4,0.7,0.1,0.9c-0.1,0.1-0.3,0.3-0.3,0.3c0.2,0.7,0.4,1.4,0.5,1.8c0.1,0.6,0.3,2.2,0.4,2.7
				c0.1,0.5,0.3,0.9,0.3,0.9s1.3-0.7,1.9-0.8c0.6,0,1.9-0.3,2.5-0.4c0.6-0.1,1.7-0.3,2.2-0.5c0.5-0.1,2.3,0,3.1,0s1.3,0.3,2.7,0
				c1.3-0.3,2.3,0,3.7-0.3s2.1-0.7,3.1-0.9c1-0.1,3.1-0.6,3.5-0.8c0.4-0.1,2.6-0.2,3.7-0.2s2.2-0.3,3-0.6c0.8-0.2,1.7-0.1,3.1-1.7
				c1.4-1.6,2.4-4.1,2.5-4.4c0.1-0.3,0-0.4,0.2-0.2s0.5,0,0.7-0.3s0.7-1.1,0.9-1.4c0.2-0.3,0.8-0.5,0.9-0.7c0.1-0.2,0.5-0.7,0.5-0.9
				c0-0.1,0.3-1.4,0.3-1.4s0.2,0,0.5,0c0.2,0,0.1-0.7,0.1-0.7l0.1-1.1l0.3-0.2l0.2-0.8l0.2-0.8c0,0,0.1-0.4,0.4-0.2
				c0.3,0.2,0.1,1,0.1,1l0.3,0.9l0.2,0.4l0.4-0.8l0.2-0.9l0.1-0.6l0.4-1.3l0.5-0.1l0.1-1.1l0.2-1l0.3-0.1l0.2,0.2l0.3,0.1l0.7-0.1
				l-0.4-0.7l-0.3-0.6l0.1-0.4l-196.4-9.5c-0.2,0.3-0.6,1.2-0.6,1.2L581.2,22.9z"/>
			<path class="st1" d="M579.1,20c-0.1-0.2-0.2-0.3-0.3-0.5l-1.5-0.1l-0.7-0.1c0,0,0,0,0,0.1c-0.1,0.2-0.4,0.2-0.2,0.3l0.9,0.1
				L579.1,20z"/>
			<path class="st1" d="M1532.2,3.4L1532.2,3.4c0-1,0.1-2,0.2-4l0,0l0,0l0,0H0v4H1532.2L1532.2,3.4z"/>
			<path class="st1" d="M1538.7,0v0.2h0.2c0-0.1,0.1-0.1,0.1-0.1l0,0l0,0l0,0l0,0l0,0c0,0,0,0,0.1,0l0,0c0,0,0,0,0.1,0
				s0.1,0,0.2,0.1h2.2c0-0.1,0.1-0.1,0.1-0.1s0,0,0.1,0l0,0c0.1,0,0.1,0,0.2,0.1h57.9V0H1538.7z"/>
		</g>
	</g>
</g>
</svg>
